<?xml version="1.0" standalone="no"?>
<!DOCTYPE svg PUBLIC "-//W3C//DTD SVG 20010904//EN"
 "http://www.w3.org/TR/2001/REC-SVG-20010904/DTD/svg10.dtd">
<svg version="1.0" xmlns="http://www.w3.org/2000/svg"
 width="16.000000pt" height="16.000000pt" viewBox="0 0 16.000000 16.000000"
 preserveAspectRatio="xMidYMid meet">
<metadata>
Created by potrace 1.11, written by Peter Selinger 2001-2013
</metadata>
<g transform="translate(0.000000,16.000000) scale(0.001042,-0.001042)"
fill="#000000" stroke="none">
<path d="M420 14069 c0 -5 -6 -7 -12 -3 -9 5 -9 2 1 -9 9 -12 10 -17 2 -17 -8
0 -9 -5 -1 -19 7 -14 7 -22 0 -26 -6 -4 -8 -10 -5 -15 3 -5 1 -11 -4 -14 -11
-7 -9 13 3 34 7 12 6 13 -4 3 -18 -17 -22 -46 -7 -55 9 -6 9 -8 0 -8 -7 0 -10
-9 -8 -20 5 -26 -4 -52 -15 -45 -5 3 -7 -6 -4 -21 3 -19 1 -24 -8 -18 -10 6
-10 5 0 -8 10 -12 10 -18 1 -23 -8 -6 -7 -10 2 -16 10 -6 11 -9 2 -9 -7 0 -13
-7 -13 -16 0 -8 -4 -13 -8 -10 -4 2 -8 -12 -8 -32 -1 -69 -4 -83 -14 -77 -5 3
-10 2 -10 -4 0 -5 6 -12 13 -14 10 -4 10 -6 0 -6 -7 -1 -13 -8 -13 -17 0 -8 5
-12 11 -8 6 3 4 -4 -4 -17 -8 -13 -13 -32 -12 -41 2 -10 -1 -20 -5 -23 -5 -3
-6 -13 -3 -22 4 -11 3 -14 -5 -9 -9 5 -9 0 -2 -19 8 -20 7 -27 -6 -32 -12 -4
-13 -8 -3 -14 10 -6 10 -11 1 -22 -7 -7 -9 -17 -5 -20 3 -4 1 -7 -7 -7 -10 0
-10 -4 1 -17 12 -14 12 -16 0 -8 -11 6 -13 4 -8 -7 3 -9 0 -21 -6 -28 -10 -10
-8 -12 7 -6 17 6 17 5 5 -10 -8 -10 -15 -25 -15 -36 -1 -10 -2 -25 -3 -34 0
-8 -5 -13 -9 -10 -4 2 -8 -4 -8 -14 0 -10 4 -16 8 -14 4 3 8 1 8 -5 0 -5 -5
-13 -11 -17 -8 -4 -7 -9 2 -15 12 -7 12 -9 0 -9 -7 0 -11 -6 -7 -15 3 -8 1
-15 -5 -15 -6 0 -5 -8 2 -21 7 -13 7 -19 1 -15 -6 4 -10 -1 -10 -11 0 -10 -3
-26 -7 -35 -4 -11 -3 -18 5 -18 6 0 8 -5 3 -12 -4 -7 -6 -22 -5 -33 2 -17 1
-18 -8 -5 -10 13 -11 12 -6 -4 4 -10 1 -26 -6 -34 -7 -9 -8 -13 -2 -9 7 4 11
-7 10 -33 -1 -22 -5 -40 -9 -40 -5 0 -5 -10 -2 -21 5 -15 4 -19 -4 -15 -8 5
-8 0 -2 -16 10 -27 4 -51 -11 -42 -5 4 -2 -6 8 -22 11 -15 14 -25 8 -21 -13 8
-29 -23 -17 -32 10 -7 10 -21 3 -36 -3 -5 -5 -26 -5 -45 0 -19 -7 -41 -15 -48
-8 -8 -10 -11 -4 -8 7 3 14 -1 18 -9 3 -10 -1 -15 -12 -16 -14 0 -14 -2 3 -9
11 -5 15 -9 10 -9 -6 -1 -9 -18 -7 -42 3 -24 0 -39 -5 -36 -5 3 -9 -5 -9 -19
0 -13 5 -24 11 -24 5 0 3 -5 -5 -10 -13 -9 -13 -10 0 -10 13 0 13 -1 0 -10
-11 -7 -11 -10 -2 -10 8 0 10 -5 5 -12 -4 -7 -9 -22 -10 -33 -3 -16 -1 -17 7
-5 8 12 9 11 7 -7 -2 -12 -6 -26 -10 -29 -12 -12 -8 -52 6 -57 9 -4 9 -6 0 -6
-7 -1 -13 -12 -13 -26 0 -14 6 -25 13 -25 9 0 9 -2 0 -8 -15 -10 -15 -92 1
-92 8 0 8 -2 0 -8 -14 -9 -13 -72 1 -72 5 0 3 -5 -5 -10 -13 -9 -13 -10 0 -10
13 0 13 -1 0 -10 -13 -9 -13 -10 0 -10 13 0 13 -1 0 -10 -10 -6 -11 -10 -2
-10 6 0 12 -5 12 -11 0 -5 -4 -8 -8 -5 -5 3 -9 -1 -9 -9 0 -8 4 -12 9 -9 13 8
10 -10 -5 -25 -7 -9 -7 -11 -1 -8 19 11 24 -19 8 -42 -9 -12 -12 -21 -7 -20
22 4 25 -3 7 -17 -10 -8 -14 -13 -8 -10 14 7 22 -10 20 -46 -1 -16 2 -28 7
-28 5 0 5 -6 -1 -13 -8 -9 -7 -21 3 -40 8 -15 10 -25 5 -22 -6 4 -10 1 -10 -4
0 -6 4 -11 8 -11 5 0 7 -16 6 -35 -2 -22 1 -35 9 -35 7 0 6 -4 -3 -10 -11 -7
-12 -12 -3 -21 9 -9 9 -17 1 -32 -8 -17 -8 -19 5 -14 11 4 14 2 11 -7 -3 -8 0
-17 5 -21 6 -3 8 -12 4 -18 -14 -22 -14 -49 -1 -41 9 5 9 2 -1 -9 -10 -13 -10
-17 -1 -17 7 0 10 -8 7 -20 -3 -11 1 -27 9 -34 11 -11 11 -16 1 -19 -9 -4 -8
-6 2 -6 11 -1 11 -4 0 -18 -10 -11 -10 -14 -1 -9 7 4 12 1 12 -9 0 -10 -5 -14
-12 -10 -7 4 -6 0 3 -7 9 -7 16 -25 15 -38 -1 -14 5 -34 13 -44 9 -11 11 -16
5 -13 -7 4 -14 0 -17 -7 -4 -10 0 -13 14 -11 16 3 18 1 9 -16 -8 -13 -7 -19 0
-19 6 0 8 -4 5 -10 -3 -5 -2 -10 3 -10 5 0 7 -12 4 -26 -3 -18 -1 -25 6 -20 7
4 10 -3 8 -21 -1 -16 5 -37 13 -47 9 -11 10 -16 4 -12 -18 10 -16 -2 2 -21 8
-8 13 -19 10 -24 -4 -5 0 -9 7 -9 9 0 9 -3 -2 -10 -8 -5 -10 -10 -4 -10 7 0
15 -7 18 -16 5 -12 3 -14 -7 -8 -7 5 -4 1 7 -9 17 -16 18 -20 5 -28 -11 -7
-11 -9 0 -9 7 0 11 -6 7 -15 -5 -14 5 -20 27 -16 5 1 6 -3 2 -9 -3 -6 -12 -8
-18 -4 -7 3 -3 -2 7 -10 11 -9 15 -16 10 -16 -5 0 -10 -9 -10 -19 0 -14 4 -17
12 -10 8 6 14 4 18 -6 4 -11 2 -14 -7 -9 -9 6 -9 4 1 -8 9 -11 10 -18 2 -23
-12 -8 -4 -25 13 -25 7 0 6 4 -3 11 -13 9 -13 10 0 6 8 -2 15 -12 15 -23 -1
-10 4 -22 10 -26 6 -5 6 -8 -2 -8 -7 0 -13 -4 -13 -10 0 -5 7 -6 17 -3 10 4
14 2 9 -5 -3 -6 -1 -14 5 -17 6 -4 8 -18 5 -31 -5 -17 -1 -26 15 -34 11 -6 18
-17 16 -23 -2 -7 3 -18 12 -25 13 -11 13 -12 1 -7 -8 4 -6 -1 4 -9 15 -12 16
-16 5 -16 -12 0 -12 -2 1 -9 8 -6 19 -7 25 -4 5 3 4 0 -3 -8 -14 -16 -16 -33
-2 -24 6 3 10 -1 10 -10 0 -10 5 -13 12 -9 9 5 9 3 -1 -9 -11 -14 -11 -18 3
-23 9 -3 13 -11 9 -17 -4 -7 0 -8 12 -3 15 5 16 4 5 -9 -9 -11 -9 -15 -1 -15
7 0 9 -4 6 -10 -3 -5 -1 -10 6 -10 7 0 9 -8 6 -21 -5 -17 -3 -18 11 -7 9 7 14
8 10 4 -4 -5 -2 -16 5 -24 9 -13 9 -14 0 -8 -9 5 -11 2 -7 -8 3 -9 13 -16 21
-16 8 0 11 -4 8 -10 -3 -5 -1 -10 6 -10 8 0 8 -4 -1 -15 -11 -13 -10 -14 3
-10 8 4 18 1 23 -6 4 -7 3 -10 -3 -6 -5 3 -10 0 -10 -8 0 -8 3 -14 6 -13 28 3
33 -2 20 -19 -10 -11 -10 -14 -1 -9 7 4 12 1 12 -9 0 -9 4 -14 9 -11 5 3 11
-8 14 -24 5 -23 10 -28 24 -23 16 6 17 5 3 -12 -9 -11 -10 -16 -2 -11 7 4 12
2 12 -6 0 -8 7 -23 16 -34 8 -10 13 -12 9 -4 -4 8 2 4 13 -10 11 -13 18 -28
16 -32 -3 -5 2 -11 10 -14 9 -3 13 -10 10 -15 -3 -5 1 -9 9 -9 8 0 18 -7 21
-16 5 -14 4 -15 -9 -4 -13 11 -14 10 -9 -4 3 -9 15 -16 25 -16 13 0 17 -5 12
-17 -4 -11 -3 -14 5 -9 16 10 15 -6 0 -23 -11 -11 -10 -13 0 -7 7 4 15 1 18
-8 3 -9 11 -16 17 -16 5 0 2 9 -8 20 -10 11 -13 20 -8 20 6 0 20 -20 31 -44
12 -24 28 -46 37 -50 10 -3 15 -12 11 -21 -3 -8 -2 -14 2 -14 22 4 31 -3 25
-18 -6 -15 -4 -16 9 -5 13 10 17 10 22 -3 4 -11 2 -14 -7 -10 -6 4 -4 0 7 -9
11 -9 16 -21 12 -32 -5 -14 -4 -15 9 -4 15 12 21 3 16 -24 -1 -5 6 -3 15 5 12
9 15 9 10 2 -4 -8 -2 -13 6 -13 11 0 10 -2 0 -9 -10 -6 -9 -10 7 -14 12 -3 21
-13 21 -22 0 -9 5 -13 10 -10 6 3 10 -2 10 -12 0 -15 2 -16 10 -3 9 13 10 13
10 0 0 -8 9 -26 20 -40 17 -21 19 -22 15 -5 -5 16 -3 16 6 -2 7 -13 18 -23 25
-23 7 0 11 -8 9 -19 -3 -14 1 -18 11 -14 9 3 14 -1 14 -13 0 -16 2 -17 10 -4
8 13 10 12 10 -3 0 -10 5 -15 10 -12 6 3 10 -3 10 -15 0 -12 5 -18 10 -15 6 3
10 -1 10 -9 0 -9 7 -13 20 -11 18 4 26 -14 21 -47 0 -4 6 -5 15 -1 9 3 19 2
23 -3 3 -5 15 -14 26 -20 13 -7 20 -21 19 -37 -1 -15 3 -24 8 -21 4 3 6 10 3
15 -4 5 -2 9 3 9 5 0 15 -11 22 -25 7 -14 15 -23 18 -20 3 2 1 10 -4 18 -5 7
-1 4 8 -6 10 -11 15 -24 11 -30 -3 -6 -1 -7 6 -3 6 4 8 13 5 19 -4 7 3 2 15
-10 22 -23 28 -39 11 -28 -5 3 -10 1 -10 -5 0 -7 8 -9 20 -5 15 5 20 2 20 -12
0 -15 2 -16 10 -3 8 13 10 12 10 -3 0 -10 5 -15 10 -12 6 3 10 1 10 -5 0 -7 7
-9 16 -6 14 5 15 4 5 -8 -9 -11 -8 -15 4 -20 9 -3 13 -2 10 4 -3 5 1 7 9 4 9
-3 14 -11 13 -17 -1 -7 6 -11 17 -9 14 3 17 -1 12 -13 -3 -9 -2 -13 4 -10 6 3
10 1 10 -4 0 -6 7 -11 15 -11 9 0 12 -6 8 -17 -5 -15 -3 -15 11 2 15 17 17 18
12 2 -3 -10 -2 -16 3 -13 5 3 14 -1 21 -9 7 -8 17 -12 24 -8 6 4 6 1 -2 -9
-10 -13 -9 -15 13 -12 22 2 25 -1 20 -19 -4 -12 -3 -17 2 -12 13 16 33 16 33
0 0 -8 5 -16 10 -16 6 -1 15 -2 20 -3 6 0 15 -8 20 -16 9 -13 11 -13 20 0 5 8
10 10 10 5 0 -6 -6 -17 -12 -24 -11 -10 -9 -11 6 -5 15 6 17 4 11 -7 -7 -11
-6 -12 7 -2 18 15 32 5 18 -12 -8 -9 -4 -12 14 -10 14 2 27 -3 30 -12 3 -8 10
-12 15 -9 5 3 12 -1 15 -10 3 -8 10 -12 16 -9 5 3 10 2 10 -4 0 -6 6 -8 14 -5
16 6 16 -11 2 -36 -7 -12 -6 -13 5 -2 16 14 49 16 49 2 0 -5 7 -10 15 -10 9 0
18 -6 21 -14 3 -8 12 -17 20 -20 9 -3 12 -1 9 4 -3 6 -1 10 4 10 6 0 11 -7 11
-16 0 -10 5 -14 16 -10 8 3 13 2 10 -3 -3 -5 4 -12 17 -16 12 -4 25 -8 30 -10
4 -1 12 -3 17 -4 6 0 10 -6 10 -12 0 -8 -6 -7 -17 2 -15 11 -14 10 1 -9 19
-22 32 -30 22 -13 -3 5 1 12 10 15 8 3 12 2 9 -4 -3 -6 -1 -10 5 -10 6 0 9 -4
6 -9 -3 -4 6 -7 19 -5 14 1 23 -2 19 -7 -5 -8 10 -13 29 -10 5 1 11 -8 14 -20
4 -16 8 -17 14 -7 7 10 9 10 9 -2 0 -13 1 -13 10 0 7 11 10 11 10 2 0 -7 4
-10 10 -7 5 3 7 0 4 -8 -3 -9 3 -16 16 -20 18 -5 19 -3 9 11 -7 9 0 5 15 -11
15 -15 31 -25 37 -22 5 4 9 0 9 -7 0 -9 3 -9 10 2 8 13 10 13 10 -2 0 -12 5
-15 17 -11 12 5 15 2 10 -9 -4 -12 -1 -14 15 -10 14 3 19 1 14 -6 -5 -8 2 -11
23 -8 23 2 28 0 23 -12 -4 -12 -1 -14 12 -9 19 7 45 -3 70 -29 9 -8 16 -11 16
-5 0 6 4 11 10 11 5 0 9 -3 7 -7 -1 -5 2 -9 7 -10 5 -1 13 -7 17 -15 7 -10 9
-10 9 0 0 10 3 10 14 0 8 -7 11 -17 8 -23 -3 -5 1 -4 10 3 12 10 18 9 28 -3
10 -12 10 -15 0 -15 -8 0 -10 -3 -7 -6 4 -4 13 -1 22 6 8 7 15 8 15 3 0 -5 6
-10 13 -10 23 -2 82 -28 95 -43 8 -8 11 -9 7 -3 -4 9 -1 11 9 7 9 -3 13 -11 9
-18 -4 -6 0 -6 9 2 13 10 18 10 24 1 4 -8 3 -9 -4 -5 -7 4 -12 5 -12 2 0 -3
10 -10 21 -17 15 -8 19 -8 15 0 -4 6 -2 11 3 11 6 0 11 -5 11 -11 0 -5 4 -7
10 -4 5 3 10 -2 10 -12 0 -15 2 -16 10 -3 8 12 10 12 10 1 0 -11 3 -11 17 0
14 12 16 12 8 0 -6 -11 -4 -13 8 -8 9 3 16 3 14 -1 -1 -4 3 -8 8 -10 6 -2 19
-11 30 -20 19 -16 19 -16 6 1 -9 12 -10 17 -2 17 6 0 14 -7 17 -15 4 -9 20
-15 43 -15 27 0 32 -3 21 -10 -12 -8 -11 -10 8 -11 31 -2 35 -3 51 -13 10 -7
12 -5 7 5 -4 8 1 4 12 -8 11 -12 22 -19 26 -16 10 11 37 12 30 2 -3 -5 0 -9 6
-9 6 0 9 -4 6 -8 -3 -5 1 -9 9 -9 8 0 12 5 9 11 -3 6 1 3 9 -7 11 -14 16 -15
20 -5 4 10 10 8 24 -7 11 -13 30 -20 51 -19 30 1 36 -5 33 -31 -1 -5 5 -2 12
7 13 17 16 16 43 -7 19 -17 32 -21 40 -14 8 7 14 6 17 -3 4 -11 6 -11 6 0 1
10 4 10 15 0 8 -7 11 -17 8 -23 -3 -5 2 -4 11 4 14 11 17 11 17 0 0 -11 2 -11
10 1 6 10 10 11 10 3 0 -7 7 -13 16 -13 9 0 12 -5 8 -12 -5 -9 -2 -8 9 1 15
12 20 12 35 -1 9 -9 25 -14 35 -13 9 2 17 -1 17 -7 0 -6 9 -8 20 -5 11 3 20 2
20 -1 0 -4 14 -15 31 -24 16 -10 27 -13 24 -8 -9 15 27 11 48 -5 11 -7 26 -11
35 -8 11 5 13 3 7 -8 -7 -11 -6 -12 6 -3 17 12 84 -7 72 -21 -5 -4 -1 -4 7 0
19 12 50 14 44 3 -5 -7 27 -13 49 -9 5 1 6 -3 2 -9 -3 -5 4 -10 17 -10 41 1
72 -6 75 -17 2 -5 17 -7 33 -5 21 3 30 0 30 -9 0 -11 2 -11 10 1 7 12 10 12
10 1 0 -8 6 -11 16 -7 8 3 12 2 9 -3 -3 -5 -1 -12 5 -16 5 -3 10 -2 10 4 0 5
9 9 20 8 11 -1 20 -8 20 -17 0 -12 2 -12 9 -2 12 20 18 19 34 -2 10 -13 16
-15 21 -8 5 9 14 7 33 -5 31 -21 56 -26 47 -10 -5 8 -2 7 7 -1 17 -16 42 -16
33 1 -4 6 2 4 13 -6 11 -9 23 -14 26 -10 4 3 17 -2 29 -13 12 -10 18 -13 14
-6 -4 6 -3 12 3 12 5 0 12 -6 14 -12 4 -10 6 -10 6 0 1 10 6 10 24 1 12 -6 19
-8 15 -4 -4 5 -3 14 3 22 6 7 10 13 8 14 -2 0 -17 3 -34 5 -31 6 -48 22 -38
38 3 5 1 6 -5 2 -6 -4 -9 -14 -5 -24 3 -9 -4 -2 -16 16 -11 17 -24 32 -27 32
-4 0 -1 -7 6 -15 11 -13 10 -14 -4 -9 -9 3 -16 11 -16 18 0 6 -5 4 -10 -4 -8
-13 -10 -12 -10 3 0 11 -4 15 -12 11 -8 -5 -9 -2 -4 11 5 15 4 16 -9 5 -14
-12 -20 -7 -15 15 1 6 -2 7 -6 2 -4 -4 -17 1 -28 10 -20 17 -20 17 -7 1 7 -10
11 -18 9 -18 -9 0 -49 39 -49 47 1 4 -7 8 -16 8 -10 0 -25 7 -33 15 -12 13
-13 13 -5 1 7 -11 -1 -9 -25 6 -19 11 -34 25 -33 31 1 5 -7 8 -17 5 -23 -6
-53 15 -47 31 3 7 -6 11 -22 11 -20 0 -25 4 -23 20 2 15 1 17 -6 6 -8 -11 -13
-10 -29 6 -16 16 -25 18 -39 10 -11 -5 -16 -7 -12 -3 3 4 -1 17 -10 28 -20 23
-59 47 -48 29 4 -6 2 -11 -3 -11 -6 0 -11 7 -11 15 0 13 -17 20 -41 17 -4 -1
-6 6 -5 16 1 12 -6 17 -26 16 -20 -1 -25 3 -20 14 4 11 1 14 -11 9 -16 -6 -22
3 -18 26 1 4 -8 3 -19 -3 -11 -6 -20 -7 -20 -2 0 4 -7 17 -15 28 -15 19 -15
19 -8 -1 6 -17 5 -18 -9 -5 -12 12 -13 18 -4 29 9 12 7 12 -13 2 -15 -8 -21
-9 -17 -2 4 6 0 11 -9 11 -9 0 -13 5 -10 10 5 9 -23 15 -48 11 -4 0 -6 2 -6 6
4 22 -3 32 -16 27 -8 -4 -17 1 -21 10 -3 9 -10 16 -16 16 -10 0 -38 25 -35 31
1 3 -2 1 -7 -3 -5 -3 -23 7 -40 23 -17 16 -34 29 -38 29 -5 0 -8 7 -8 15 0 8
-10 19 -22 25 -22 11 -22 10 -4 -4 11 -9 15 -16 9 -16 -11 0 -43 32 -43 44 0
5 8 5 18 1 13 -5 14 -3 6 5 -9 9 -17 9 -34 0 -15 -8 -20 -8 -16 -1 4 6 2 11
-3 11 -6 0 -11 7 -11 16 0 8 -5 12 -11 9 -12 -8 -49 23 -49 42 0 7 -5 13 -11
13 -5 0 -7 -5 -3 -12 4 -7 3 -8 -5 -4 -9 6 -9 11 1 24 12 14 10 14 -9 3 -25
-13 -31 -3 -10 18 6 7 8 12 2 11 -22 -5 -36 1 -29 11 4 8 0 9 -15 4 -23 -7
-28 4 -8 24 10 11 10 13 0 7 -7 -4 -13 -2 -13 5 0 8 -5 7 -17 -2 -15 -13 -15
-12 -3 11 13 24 12 24 -5 10 -17 -14 -18 -13 -13 7 4 16 2 20 -8 16 -8 -3 -14
1 -14 11 0 9 -6 16 -14 16 -8 0 -18 5 -22 12 -4 7 -3 8 4 4 8 -5 10 -2 6 8 -3
9 -11 16 -18 16 -15 0 -38 38 -31 50 4 6 -1 10 -9 10 -9 0 -16 5 -16 11 0 5 5
7 10 4 6 -4 -1 11 -15 31 -14 21 -23 44 -21 51 3 7 1 13 -5 13 -6 0 -7 5 -4
10 11 17 14 80 4 80 -5 0 -9 4 -9 10 0 5 7 6 17 3 10 -4 14 -2 9 5 -3 6 -2 13
4 17 6 4 7 11 4 17 -4 6 -2 8 4 5 14 -9 64 51 55 66 -4 8 -1 7 9 -1 13 -10 17
-10 22 3 4 11 2 14 -6 9 -7 -4 -8 -3 -4 5 4 6 11 9 16 6 5 -3 15 3 22 14 9 15
15 17 25 9 9 -7 13 -7 13 2 0 7 7 10 15 6 8 -3 14 0 12 6 -2 10 22 17 75 21
13 1 14 4 6 15 -9 10 -8 12 3 10 8 -2 17 -7 21 -13 5 -6 8 -6 8 2 0 17 58 44
66 31 5 -7 2 -8 -6 -3 -9 6 -11 4 -6 -4 6 -9 12 -9 24 3 14 12 42 18 115 25 5
1 6 5 3 9 -2 4 7 9 20 10 17 1 23 -2 19 -11 -4 -6 0 -4 8 6 8 10 17 14 20 10
5 -7 24 -8 70 -4 5 1 6 5 3 10 -7 11 13 9 33 -3 9 -6 12 -5 8 1 -4 6 2 13 13
16 13 3 18 1 13 -6 -4 -7 1 -6 10 2 14 11 17 11 17 0 0 -9 3 -10 8 -4 4 6 18
11 31 13 17 3 21 0 15 -10 -6 -11 -5 -11 9 0 9 8 21 11 27 7 5 -3 10 -2 10 3
0 5 11 8 25 7 14 -2 25 2 25 8 0 7 5 6 10 -3 8 -12 11 -13 19 -1 6 9 10 10 16
2 5 -9 11 -9 23 1 13 11 15 11 7 -2 -6 -12 -5 -13 6 -2 17 16 32 16 23 0 -4
-7 1 -5 12 4 19 17 21 17 38 0 11 -10 16 -11 11 -3 -6 11 -4 13 8 8 10 -3 17
-2 17 3 0 6 5 10 11 10 5 0 7 -5 3 -12 -5 -7 -3 -8 6 -3 7 4 46 8 87 7 52 -1
72 2 67 10 -5 7 -3 8 6 3 20 -12 94 -12 103 0 4 7 10 7 15 0 8 -12 422 -14
422 -2 0 4 8 4 18 -1 9 -4 27 -7 40 -6 12 0 25 -3 28 -8 4 -6 10 -5 15 3 7 11
11 10 24 -6 15 -20 15 -20 8 0 -6 17 -5 18 9 7 13 -10 17 -10 21 0 4 10 8 10
16 -2 9 -12 11 -12 11 -1 0 11 5 10 20 -4 20 -18 21 -18 14 1 -7 17 -6 18 11
4 11 -9 16 -10 11 -2 -9 16 6 16 23 0 8 -7 11 -8 8 -2 -3 6 4 10 18 10 13 0
22 -3 19 -7 -2 -4 0 -10 6 -14 5 -3 10 2 10 12 0 15 2 16 10 3 5 -8 10 -10 10
-5 0 6 5 3 10 -5 8 -12 10 -12 10 -1 0 11 3 11 17 0 11 -10 14 -10 9 -1 -4 7
-1 12 8 12 9 0 16 -6 16 -12 0 -9 4 -8 10 2 9 13 10 13 10 0 0 -13 1 -13 10 0
9 13 10 13 10 0 0 -12 2 -13 9 -1 7 11 9 11 14 0 5 -12 7 -12 15 0 7 10 11 10
17 1 6 -9 10 -9 16 1 5 8 9 9 9 4 0 -6 28 -11 63 -12 35 -1 76 -7 91 -12 18
-8 25 -8 21 -1 -4 7 6 10 27 8 19 -1 40 2 47 7 9 5 12 4 7 -3 -3 -6 -2 -13 4
-17 5 -3 10 0 10 7 0 10 3 9 9 -1 8 -12 12 -12 25 -2 13 11 16 11 16 0 0 -11
2 -11 10 1 5 8 10 10 10 4 0 -7 13 -10 30 -9 17 1 30 -2 30 -7 0 -5 5 -6 10
-3 6 4 7 12 4 18 -5 8 -3 8 7 0 7 -7 31 -13 54 -13 23 0 46 -5 53 -12 9 -9 12
-9 12 1 0 7 5 9 13 4 18 -11 38 -13 31 -2 -3 5 -1 9 5 9 5 0 13 -5 16 -10 4
-7 11 -7 18 -2 16 12 48 7 58 -10 6 -8 9 -9 9 -2 0 17 28 25 36 12 4 -6 3 -8
-4 -4 -6 3 -13 2 -16 -2 -8 -13 47 -9 56 3 5 6 8 5 8 -4 0 -10 3 -11 13 -3 7
6 18 7 26 2 8 -4 21 -6 29 -2 10 3 13 1 8 -7 -7 -11 14 -11 49 0 6 2 20 -2 32
-9 16 -9 24 -9 29 0 4 6 3 8 -4 4 -6 -3 -13 -2 -16 3 -8 13 22 7 35 -6 12 -12
39 -6 52 11 5 7 7 4 3 -7 -5 -15 -2 -17 15 -12 13 4 19 3 16 -2 -4 -5 0 -10 8
-10 8 0 11 5 8 10 -4 6 0 8 10 4 18 -7 26 2 32 32 3 15 -1 18 -12 14 -11 -4
-14 -2 -9 5 5 8 2 10 -8 6 -9 -3 -14 -10 -11 -14 6 -10 -14 -7 -40 6 -11 6
-27 10 -35 9 -8 -1 -23 3 -32 7 -12 6 -18 5 -18 -4 0 -6 -7 -3 -15 8 -8 11
-15 14 -15 7 0 -7 -5 -13 -11 -13 -5 0 -7 6 -3 13 5 8 2 8 -9 -2 -13 -10 -17
-10 -17 -1 0 9 -4 9 -17 -1 -9 -8 -14 -9 -10 -3 4 7 0 15 -9 18 -22 8 -26 8
-19 -4 4 -6 -2 -7 -18 -1 -14 5 -33 8 -43 7 -11 -2 -23 0 -29 4 -18 13 -65 18
-59 6 3 -6 -2 -2 -10 8 -9 11 -16 15 -16 8 0 -7 -11 -6 -36 4 -34 14 -36 14
-30 -2 6 -16 4 -16 -15 2 -12 10 -19 13 -15 7 5 -9 2 -11 -8 -7 -9 3 -14 10
-11 14 6 10 -15 8 -32 -3 -8 -5 -13 -3 -13 3 0 7 -6 10 -12 7 -7 -2 -19 3 -26
12 -8 9 -11 11 -8 5 3 -7 -5 -14 -19 -16 -13 -3 -23 -1 -22 5 1 5 -4 12 -12
15 -9 3 -11 0 -6 -8 6 -9 4 -11 -6 -5 -7 5 -22 10 -32 10 -10 1 -23 8 -28 16
-7 11 -9 11 -9 1 0 -7 -4 -10 -10 -7 -5 3 -10 0 -10 -7 0 -8 -5 -6 -11 5 -8
14 -14 16 -25 6 -11 -9 -14 -8 -15 7 0 11 -3 13 -6 7 -3 -9 -10 -10 -22 -3
-10 5 -21 6 -25 3 -3 -3 -6 -1 -6 6 0 7 -5 9 -12 4 -19 -11 -37 -12 -44 -2 -3
5 -21 9 -40 9 -19 0 -34 5 -34 10 0 6 -12 10 -26 10 -17 0 -23 -4 -18 -12 4
-7 -5 -2 -21 12 -16 14 -25 19 -21 13 4 -7 2 -13 -3 -13 -6 0 -11 5 -11 10 0
6 -5 10 -11 10 -5 0 -7 -6 -4 -12 4 -7 -1 -4 -9 6 -12 15 -16 16 -16 5 -1 -10
-5 -9 -15 5 -12 16 -15 17 -15 4 0 -11 -6 -15 -20 -11 -11 3 -20 10 -20 17 0
6 -5 4 -10 -4 -5 -8 -10 -10 -10 -3 0 6 -13 10 -29 9 -16 -1 -29 0 -29 3 2 19
-4 24 -12 11 -8 -12 -10 -12 -10 -1 0 11 -3 11 -17 0 -11 -10 -14 -10 -9 -1 5
8 0 12 -14 12 -14 0 -19 4 -14 13 5 8 2 8 -9 -2 -13 -10 -17 -10 -17 -1 0 10
-3 10 -15 0 -10 -9 -15 -9 -15 -1 0 6 -5 11 -11 11 -5 0 -7 -6 -4 -12 4 -7 1
-6 -7 3 -7 9 -19 14 -27 11 -8 -2 -11 0 -8 5 8 13 -36 11 -45 -2 -5 -6 -8 -5
-8 3 0 7 -13 12 -30 12 -16 0 -30 4 -30 9 0 5 -11 8 -25 6 -14 -1 -28 2 -31 7
-4 6 -10 5 -15 -3 -7 -11 -9 -10 -9 5 0 16 -2 17 -17 5 -10 -7 -15 -9 -11 -5
12 14 -25 36 -39 24 -8 -7 -19 -5 -34 5 -12 9 -28 13 -37 10 -11 -5 -13 -3 -7
8 8 12 6 12 -8 0 -14 -11 -17 -11 -17 0 0 11 -2 11 -10 -1 -9 -13 -10 -13 -10
0 0 13 -1 13 -10 0 -6 -10 -10 -11 -10 -2 0 6 -9 12 -20 12 -11 0 -20 4 -20 8
0 5 -7 9 -15 9 -8 0 -15 -4 -15 -9 0 -5 -13 0 -28 11 -22 15 -32 17 -40 9 -9
-9 -12 -9 -12 1 0 7 -9 11 -22 9 -13 -2 -22 2 -21 7 1 6 -18 10 -44 10 -25 0
-47 4 -51 9 -3 5 1 6 8 1 9 -5 11 -4 6 4 -6 9 -11 9 -22 0 -11 -9 -14 -8 -14
6 0 10 -3 15 -6 12 -4 -3 -15 -2 -25 3 -12 7 -20 7 -24 0 -9 -14 -27 -2 -19
13 3 7 -2 3 -10 -7 -16 -19 -16 -19 -16 5 0 19 -2 21 -10 9 -6 -10 -10 -11
-10 -2 0 6 -5 12 -11 12 -5 0 -7 -6 -3 -12 5 -9 2 -9 -9 1 -14 11 -17 11 -17
0 0 -11 -2 -11 -9 1 -6 8 -7 18 -4 24 4 5 1 6 -8 0 -8 -4 -20 -9 -27 -10 -11
-2 -11 0 0 14 11 14 11 14 -7 5 -15 -9 -22 -8 -33 5 -13 16 -13 16 -8 0 3 -12
1 -15 -9 -11 -8 3 -12 10 -8 16 4 6 -2 8 -15 5 -16 -5 -22 -2 -23 10 0 14 -2
13 -9 -3 -5 -11 -9 -14 -9 -8 -1 7 -4 12 -8 12 -19 -3 -27 2 -15 10 11 7 10 9
-3 14 -9 4 -14 3 -11 -2 3 -5 -3 -11 -14 -14 -13 -3 -18 -1 -13 6 4 6 0 8 -9
5 -8 -4 -20 2 -27 14 -8 13 -16 16 -24 10 -16 -13 -46 -11 -44 2 1 6 -4 10
-10 9 -7 -2 -13 3 -13 10 0 8 -4 7 -10 -3 -6 -10 -10 -11 -10 -3 0 7 -3 12 -7
12 -22 -4 -33 2 -27 14 5 7 0 6 -11 -3 -12 -9 -16 -10 -11 -2 6 9 1 11 -18 8
-14 -3 -26 0 -26 5 0 15 -44 28 -52 15 -5 -7 -8 -3 -8 9 0 11 -4 16 -8 10 -11
-15 -32 -17 -29 -2 1 7 -6 11 -17 9 -12 -2 -16 1 -11 10 3 7 -1 4 -9 -6 -14
-17 -16 -18 -16 -3 0 9 -7 17 -15 17 -8 0 -15 5 -15 11 0 8 -5 8 -15 -1 -12
-10 -15 -10 -15 0 0 7 -7 10 -16 6 -12 -4 -15 -2 -10 9 6 16 -14 16 -26 0 -5
-6 -8 -5 -8 3 0 6 -9 12 -19 12 -11 0 -27 10 -35 22 -15 21 -16 21 -16 3 -1
-19 -1 -19 -14 -2 -7 9 -25 17 -40 17 -14 0 -26 5 -26 11 0 5 -4 7 -10 4 -5
-3 -10 -1 -10 5 0 6 -4 8 -10 5 -5 -3 -10 0 -10 7 0 9 -3 9 -10 -2 -8 -13 -10
-13 -10 2 0 12 -6 15 -22 10 -16 -4 -19 -2 -13 9 7 11 5 11 -10 -1 -11 -9 -16
-10 -11 -2 5 8 1 12 -13 12 -10 0 -21 5 -23 11 -2 7 -17 13 -33 15 -16 2 -31
8 -33 13 -2 5 -10 7 -19 4 -11 -4 -14 -2 -9 5 5 8 -3 12 -26 13 -18 1 -37 1
-42 0 -5 -1 -4 4 2 12 18 21 1 29 -20 10 -18 -16 -18 -16 -12 2 5 12 4 16 -3
12 -6 -4 -21 2 -33 13 -27 24 -38 26 -20 5 11 -13 10 -14 -3 -10 -8 4 -17 15
-20 26 -3 12 -11 17 -21 13 -9 -3 -13 -11 -10 -18 3 -6 -1 -3 -9 6 -8 10 -17
15 -21 11 -4 -4 -4 0 -1 9 5 13 2 15 -14 11 -12 -3 -21 -1 -21 6 0 6 -9 11
-21 11 -12 0 -17 4 -13 11 5 8 1 8 -14 0 -18 -10 -20 -8 -17 16 2 25 2 26 -11
8 -12 -16 -14 -16 -20 -2 -3 9 -10 14 -16 11 -5 -3 -16 2 -24 12 -9 11 -13 13
-9 7 3 -7 1 -13 -5 -13 -6 0 -13 7 -16 15 -4 8 -18 15 -33 15 -20 0 -23 2 -11
10 12 8 10 10 -10 10 -30 1 -63 23 -52 36 4 4 0 3 -9 -4 -14 -10 -18 -10 -23
4 -3 9 -3 21 1 26 4 7 1 8 -6 4 -7 -5 -10 -15 -7 -25 5 -14 4 -13 -8 2 -7 9
-19 17 -25 17 -7 0 -9 5 -6 10 4 7 -3 9 -20 6 -25 -5 -26 -3 -21 22 3 15 3 21
0 14 -3 -6 -11 -9 -16 -6 -7 5 -8 2 -3 -5 6 -10 3 -11 -14 -1 -12 6 -19 15
-16 20 4 6 -1 7 -11 3 -13 -5 -15 -3 -9 8 7 12 6 12 -7 1 -10 -8 -19 -9 -22
-3 -3 5 0 12 6 15 7 4 3 4 -10 2 -12 -2 -20 0 -16 5 3 5 -2 9 -10 9 -9 0 -16
5 -16 12 0 6 -3 9 -6 5 -4 -3 -14 2 -23 11 -9 10 -11 11 -6 3 9 -12 7 -12 -13
-2 -12 7 -20 17 -16 23 4 7 3 8 -4 4 -7 -4 -12 -2 -12 5 0 9 -3 9 -14 0 -11
-9 -16 -9 -22 0 -4 8 -3 9 4 5 7 -4 12 -2 12 3 0 6 -7 11 -15 11 -8 0 -15 4
-15 10 0 5 -3 9 -7 9 -21 -3 -33 2 -27 12 4 8 0 9 -15 4 -16 -5 -20 -3 -15 8
3 8 -2 17 -11 21 -9 3 -13 2 -10 -4 3 -6 -1 -7 -9 -4 -19 7 -20 16 -4 34 11
12 10 12 -3 2 -20 -15 -49 -5 -49 17 0 14 -2 14 -10 1 -8 -13 -10 -12 -11 5
-1 11 -1 24 0 28 1 5 -3 6 -9 2 -6 -3 -8 -11 -5 -16 9 -14 -5 -11 -20 5 -8 7
-11 16 -8 20 4 3 -4 6 -16 6 -25 0 -88 47 -83 62 1 5 -2 7 -8 3 -5 -3 -10 -1
-10 4 0 6 -6 11 -14 11 -8 0 -33 20 -56 44 -24 25 -48 42 -55 40 -7 -3 -24 9
-38 25 -25 30 -45 43 -31 19 4 -7 3 -8 -5 -4 -9 6 -9 11 1 24 12 14 10 14 -11
3 -15 -8 -21 -9 -17 -2 4 6 2 11 -3 11 -6 0 -11 5 -11 11 0 5 6 7 13 3 8 -5 7
-2 -2 9 -11 14 -16 15 -29 5 -13 -10 -14 -10 -8 0 4 7 2 12 -4 12 -6 0 -8 4
-5 10 3 6 -1 7 -9 4 -11 -4 -16 0 -16 11 0 9 -4 13 -10 10 -5 -3 -10 0 -10 8
0 17 -27 30 -41 21 -5 -3 -8 -2 -7 3 1 4 -1 18 -5 29 -6 16 -14 21 -30 17 -16
-3 -18 -2 -8 5 11 8 9 11 -8 17 -19 6 -20 9 -9 23 11 14 11 14 -6 5 -15 -8
-23 -7 -33 2 -17 18 -17 31 1 16 11 -9 16 -9 22 0 4 7 3 9 -4 5 -6 -3 -13 -2
-17 3 -3 6 -11 8 -18 5 -7 -2 -19 6 -27 20 -7 14 -16 24 -19 23 -3 -1 -6 1 -6
5 0 4 -10 15 -22 23 -13 9 -23 22 -23 28 0 7 4 6 11 -3 9 -13 10 -13 6 0 -2 8
-11 14 -21 12 -11 -2 -16 4 -17 20 0 13 -3 17 -6 11 -2 -7 -9 -13 -14 -13 -6
0 -8 4 -4 9 7 13 -24 43 -37 35 -7 -4 -8 -2 -4 4 4 7 2 12 -5 12 -8 0 -8 5 2
18 7 9 10 14 5 10 -5 -4 -17 -3 -28 3 -16 9 -17 13 -6 27 11 13 11 14 -1 7
-11 -6 -13 -4 -8 7 4 12 1 14 -15 10 -16 -4 -20 -1 -16 9 3 8 0 23 -8 34 -8
10 -14 13 -14 7 0 -7 -5 -12 -11 -12 -6 0 -9 7 -6 15 4 8 1 17 -5 21 -7 5 -8
2 -3 -6 5 -9 4 -11 -3 -6 -7 4 -12 14 -12 22 0 10 -5 12 -12 8 -8 -5 -7 0 2
11 8 10 10 16 4 12 -6 -4 -22 2 -34 13 -21 18 -16 30 5 12 6 -4 -3 7 -20 24
-16 17 -34 29 -39 26 -5 -3 -6 0 -3 5 4 6 0 16 -8 23 -8 7 -15 19 -15 26 0 8
-4 14 -10 14 -5 0 -10 7 -10 16 0 8 -4 13 -9 10 -5 -4 -7 4 -5 16 2 13 2 17
-2 10 -3 -6 -10 -9 -15 -6 -6 3 -5 12 3 22 11 13 10 15 -4 9 -12 -4 -18 -2
-18 8 0 8 -9 19 -21 25 -17 10 -18 14 -7 28 7 9 8 13 2 9 -7 -4 -18 1 -25 10
-8 9 -9 14 -2 10 7 -4 10 -1 9 9 -3 18 -26 35 -38 28 -12 -8 -9 11 4 24 9 9 9
12 -1 12 -7 0 -9 5 -5 13 5 7 0 6 -11 -3 -17 -14 -18 -13 -13 8 5 16 2 22 -10
23 -12 0 -13 2 -4 6 10 4 8 9 -8 20 -17 12 -19 18 -9 29 10 12 9 13 -7 7 -17
-6 -17 -5 -5 10 12 15 12 17 -4 10 -14 -5 -17 -3 -12 10 3 9 1 19 -5 23 -7 5
-8 2 -3 -6 5 -9 4 -11 -4 -6 -9 6 -9 11 0 22 11 13 3 19 -23 15 -4 0 -5 8 -3
19 2 11 -2 26 -10 34 -11 10 -11 16 -2 26 9 10 9 11 0 6 -9 -5 -13 0 -13 16 0
18 -2 20 -10 8 -9 -14 -11 -6 -10 35 1 12 -26 32 -35 27 -5 -2 -4 1 2 9 7 7
13 20 13 28 0 14 -2 14 -11 1 -9 -12 -10 -11 -6 8 3 15 0 22 -9 22 -8 0 -14 5
-14 10 0 6 5 10 12 10 6 0 4 6 -7 13 -11 9 -15 19 -10 27 6 9 4 11 -5 5 -10
-6 -12 -1 -8 19 3 14 1 29 -5 33 -6 3 -7 1 -3 -5 4 -7 2 -12 -5 -12 -6 0 -9 8
-6 20 3 11 1 20 -5 20 -5 0 -6 5 -3 10 3 6 1 10 -6 10 -8 0 -7 5 2 17 12 14
12 16 0 8 -11 -6 -13 -3 -9 13 3 12 3 21 -1 20 -19 -2 -24 3 -11 12 13 8 13
10 -1 10 -17 0 -22 30 -5 30 6 0 3 5 -7 11 -15 9 -16 13 -5 27 11 13 11 14 -1
7 -11 -6 -13 -4 -8 8 4 12 1 17 -11 17 -13 0 -14 2 -3 9 10 7 10 10 1 13 -10
3 -10 9 -1 26 9 18 9 22 -1 20 -8 -2 -12 5 -10 16 2 10 -1 15 -6 12 -5 -3 -12
3 -15 14 -3 11 -1 17 4 14 16 -9 2 45 -15 62 -9 8 -16 21 -16 27 0 7 5 6 11
-3 9 -12 9 -11 4 5 -4 11 -8 26 -8 33 0 6 -4 12 -9 12 -4 0 -8 5 -8 11 0 5 6
7 13 3 6 -4 3 3 -8 16 -12 14 -14 20 -5 15 12 -7 13 -6 3 7 -7 8 -10 18 -6 21
3 4 1 7 -6 7 -7 0 -9 5 -6 10 4 6 11 8 16 5 5 -3 6 1 3 9 -3 9 -10 16 -16 16
-5 0 -6 5 -3 10 3 6 1 10 -4 10 -6 0 -11 5 -11 11 0 5 4 8 9 5 13 -8 0 37 -13
47 -8 5 -6 10 4 17 13 9 13 11 0 20 -13 9 -13 10 0 11 10 0 8 3 -5 9 -11 5
-14 9 -7 9 9 1 10 6 4 19 -5 9 -7 23 -4 31 2 8 0 11 -5 8 -5 -3 -9 5 -9 19 0
18 4 23 16 19 13 -5 13 -4 0 7 -19 16 -24 58 -7 58 7 0 5 5 -4 10 -11 6 -15
20 -13 40 2 17 0 29 -4 26 -5 -3 -9 1 -9 9 0 8 5 11 10 8 6 -4 8 0 4 9 -3 9 0
21 6 27 9 9 8 10 -7 5 -16 -6 -18 -4 -12 12 14 34 13 78 -2 97 -14 15 -13 17
4 18 18 0 18 1 -1 9 -13 6 -15 9 -5 9 13 1 13 2 0 11 -13 9 -13 10 0 10 9 0
11 3 5 8 -5 4 -10 19 -10 35 -1 20 3 26 14 22 11 -4 10 0 -4 15 -11 12 -13 20
-6 20 9 0 9 5 1 20 -8 15 -8 20 1 20 8 0 8 4 -1 15 -7 8 -8 15 -3 15 5 0 7 25
5 56 -3 45 -1 55 10 49 7 -3 5 0 -4 7 -11 9 -14 19 -8 28 5 8 6 18 4 22 -8 12
-34 10 -34 -3z m845 -2548 c3 -5 1 -12 -5 -16 -5 -3 -10 1 -10 9 0 18 6 21 15
7z m656 -638 l24 -26 -27 19 c-15 10 -28 22 -28 27 0 12 5 8 31 -20z m-1436
-433 c3 -5 1 -10 -4 -10 -6 0 -11 5 -11 10 0 6 2 10 4 10 3 0 8 -4 11 -10z
m2955 -1411 c-7 -11 -14 -18 -17 -15 -3 3 0 12 7 21 18 21 23 19 10 -6z m341
-1106 c13 -16 12 -17 -3 -4 -10 7 -18 15 -18 17 0 8 8 3 21 -13z m970 -260
c13 -16 12 -17 -3 -4 -10 7 -18 15 -18 17 0 8 8 3 21 -13z"/>
<path d="M14939 14067 c7 -7 7 -17 1 -28 -7 -12 -6 -20 1 -25 8 -4 7 -9 -2
-15 -11 -7 -11 -9 -1 -9 13 0 10 -38 -4 -61 -5 -8 -3 -9 6 -4 10 6 12 4 6 -11
-13 -32 -15 -55 -5 -49 10 7 12 -8 2 -19 -11 -10 -12 -37 -2 -30 5 3 9 -2 9
-11 0 -9 -4 -14 -8 -11 -5 3 -9 -1 -9 -9 0 -8 4 -12 9 -9 4 3 8 -2 8 -11 0 -9
-4 -14 -8 -11 -5 3 -9 -1 -9 -9 0 -8 4 -12 9 -9 11 7 10 -3 -3 -28 -8 -15 -8
-19 0 -14 17 11 13 -5 -6 -27 -10 -11 -13 -17 -6 -14 6 4 14 3 18 -3 3 -5 1
-10 -4 -10 -6 0 -11 -5 -11 -11 0 -5 6 -7 13 -3 8 5 8 2 -2 -9 -9 -12 -10 -17
-2 -17 7 0 9 -5 6 -10 -4 -6 -11 -7 -17 -4 -7 5 -8 2 -3 -6 11 -18 12 -70 2
-70 -5 0 -5 -4 -2 -10 3 -5 1 -19 -6 -31 -9 -17 -8 -20 3 -13 11 6 11 5 -1 -9
-11 -14 -11 -17 0 -17 9 0 10 -3 4 -8 -13 -8 -13 -22 -1 -41 7 -11 5 -13 -8
-8 -14 5 -15 3 -6 -12 7 -14 6 -21 -3 -24 -8 -4 -8 -6 2 -6 11 -1 10 -5 -5
-17 -10 -8 -13 -12 -6 -9 10 5 13 2 10 -11 -2 -11 -8 -19 -15 -19 -6 0 -15 -4
-20 -10 -4 -6 -4 -7 1 -3 10 8 36 -9 36 -23 0 -5 -5 -9 -11 -9 -5 0 -7 5 -3
12 4 7 3 8 -4 4 -8 -4 -8 -15 -2 -31 6 -16 6 -25 -1 -25 -6 0 -5 -9 2 -22 11
-20 10 -21 -3 -10 -13 11 -15 8 -12 -18 2 -17 0 -29 -4 -26 -5 3 -9 -1 -9 -9
0 -8 4 -12 8 -10 4 3 5 -4 2 -15 -3 -11 -10 -17 -17 -13 -6 4 -5 -1 3 -11 12
-14 12 -19 1 -29 -10 -10 -11 -9 -5 2 6 10 4 12 -4 6 -9 -5 -10 -10 -2 -18 7
-7 5 -15 -7 -24 -9 -8 -11 -12 -4 -8 6 3 12 0 12 -7 0 -8 -6 -20 -12 -27 -9
-10 -9 -12 -1 -7 6 3 15 2 18 -4 4 -6 1 -9 -7 -8 -7 2 -12 -3 -10 -11 2 -9 -3
-11 -14 -7 -12 5 -14 3 -8 -6 5 -7 9 -20 8 -28 -1 -8 -2 -21 -3 -28 -1 -8 -6
-10 -13 -6 -10 6 -10 4 0 -7 15 -17 16 -30 0 -26 -15 3 -18 -25 -3 -35 6 -5 5
-8 -3 -8 -7 0 -11 -4 -8 -9 3 -5 -1 -12 -10 -15 -8 -3 -12 -10 -9 -16 3 -5 1
-10 -5 -10 -6 0 -8 -5 -5 -10 4 -6 12 -8 18 -4 7 3 3 -2 -7 -10 -14 -11 -15
-16 -6 -16 9 0 8 -5 -6 -16 -10 -8 -12 -12 -4 -8 12 6 13 4 3 -7 -7 -7 -13
-26 -13 -41 0 -18 -5 -28 -15 -28 -9 0 -12 -6 -8 -17 5 -11 3 -14 -6 -8 -10 6
-11 3 -2 -13 12 -22 0 -39 -19 -27 -13 8 -8 -17 5 -28 6 -5 4 -12 -6 -20 -9
-6 -14 -18 -12 -24 5 -14 -12 -18 -20 -5 -2 4 -2 0 0 -8 8 -29 8 -34 -4 -35
-6 0 -15 -4 -20 -9 -4 -5 -3 -6 3 -3 7 4 14 1 17 -7 4 -10 -1 -12 -16 -9 -17
4 -19 3 -7 -6 12 -8 11 -13 -5 -32 -11 -12 -14 -19 -7 -15 8 5 7 -5 -5 -28 -9
-20 -20 -36 -25 -36 -4 0 -5 -6 -2 -14 3 -8 0 -17 -7 -22 -8 -4 -10 -3 -5 4 5
8 1 10 -9 5 -13 -5 -14 -7 -3 -14 16 -10 -3 -46 -23 -41 -10 2 -10 0 0 -12 11
-13 10 -17 -3 -22 -10 -4 -15 -13 -12 -20 3 -8 1 -14 -5 -14 -6 0 -7 -5 -3
-12 5 -7 2 -9 -9 -5 -12 4 -14 2 -10 -10 4 -11 2 -14 -5 -9 -7 4 -12 2 -12 -3
0 -6 4 -11 10 -11 5 0 2 -9 -7 -19 -9 -11 -21 -17 -27 -14 -6 4 -4 -2 4 -12
14 -17 13 -18 -2 -13 -12 5 -16 1 -13 -18 1 -13 -2 -27 -8 -31 -6 -3 -7 -2 -4
4 3 5 0 10 -7 10 -8 0 -11 -9 -8 -24 2 -13 -1 -23 -7 -23 -6 0 -16 -11 -23
-25 -6 -13 -16 -21 -22 -18 -6 4 -5 0 2 -9 11 -14 10 -18 -6 -27 -11 -6 -23
-7 -28 -3 -5 4 -2 -1 5 -10 10 -13 10 -18 2 -18 -7 0 -9 -5 -5 -12 4 -6 3 -8
-3 -5 -6 4 -13 -3 -17 -16 -5 -18 -8 -20 -16 -7 -8 12 -10 8 -8 -14 2 -19 -2
-30 -12 -33 -13 -4 -13 -3 0 6 13 9 13 11 -3 11 -14 0 -16 -5 -11 -25 5 -19 3
-25 -7 -23 -8 2 -14 -5 -14 -14 0 -10 -6 -23 -14 -30 -9 -8 -11 -9 -7 -1 3 6
2 15 -4 18 -6 4 -10 3 -9 -2 4 -23 -2 -53 -10 -49 -8 6 -23 -17 -25 -39 -1 -5
-11 -9 -23 -9 -13 1 -20 -2 -18 -6 3 -4 -2 -13 -10 -20 -8 -7 -12 -17 -8 -23
4 -7 0 -8 -12 -3 -14 5 -16 4 -7 -7 15 -17 3 -30 -14 -16 -10 8 -11 5 -7 -12
5 -18 3 -21 -12 -15 -15 5 -16 4 -5 -9 11 -13 11 -16 -1 -13 -8 2 -13 -3 -11
-10 1 -6 -3 -11 -9 -10 -6 2 -14 -3 -17 -11 -3 -9 0 -11 8 -6 9 5 11 4 6 -4
-4 -6 -11 -9 -16 -6 -13 8 -62 -44 -54 -57 4 -7 2 -8 -4 -4 -7 4 -12 1 -12 -8
0 -10 -6 -13 -17 -9 -11 4 -14 3 -9 -6 9 -15 -40 -71 -61 -71 -8 0 -12 -4 -9
-9 8 -13 -21 -34 -35 -25 -8 5 -9 3 -4 -6 6 -10 4 -12 -8 -7 -10 4 -16 2 -14
-6 1 -7 -4 -11 -11 -9 -8 1 -11 -2 -7 -8 4 -6 12 -7 19 -3 6 4 -2 -4 -19 -20
-17 -15 -38 -25 -48 -23 -14 3 -16 1 -7 -9 8 -9 6 -15 -7 -20 -10 -5 -22 -7
-26 -6 -5 1 -6 -2 -4 -6 3 -5 -11 -24 -31 -43 -20 -19 -29 -26 -19 -14 14 17
14 21 3 21 -8 0 -14 -3 -14 -6 1 -3 -3 -17 -9 -30 -6 -16 -12 -20 -17 -13 -10
16 -27 5 -20 -12 3 -8 0 -17 -7 -22 -8 -4 -10 -3 -5 4 5 8 2 10 -8 6 -9 -3
-13 -10 -10 -15 5 -8 -9 -13 -29 -10 -4 0 -6 -2 -6 -6 4 -22 -3 -25 -17 -7
-15 18 -15 18 -5 -3 14 -28 14 -30 -5 -37 -8 -3 -13 -2 -10 2 3 5 -1 9 -9 9
-7 0 -12 -8 -10 -18 3 -12 -1 -16 -11 -12 -8 3 -14 -1 -14 -11 0 -17 -20 -18
-32 -1 -7 9 -10 0 -7 -21 1 -11 -44 -44 -52 -38 -5 3 -9 -2 -9 -12 0 -11 -6
-15 -19 -11 -14 3 -18 1 -14 -9 5 -12 -13 -19 -39 -15 -4 0 -4 -7 -1 -16 4
-11 3 -14 -5 -9 -7 4 -15 1 -18 -8 -3 -8 -13 -17 -21 -20 -12 -5 -13 -3 -7 7
5 7 1 4 -10 -8 -10 -11 -20 -18 -21 -15 -2 3 -7 2 -11 -2 -4 -5 -1 -8 6 -8 7
0 10 -3 7 -6 -4 -4 -14 -1 -24 7 -14 12 -16 12 -8 0 6 -11 4 -13 -11 -7 -10 4
-15 4 -12 0 14 -13 -12 -45 -32 -39 -10 3 -22 0 -26 -6 -4 -8 -3 -9 4 -5 7 4
12 5 12 2 0 -3 -10 -10 -21 -17 -17 -9 -20 -8 -14 2 6 8 4 10 -4 5 -7 -5 -10
-14 -7 -21 3 -9 -3 -12 -20 -10 -14 1 -24 -3 -24 -11 0 -7 -8 -11 -19 -9 -13
2 -18 -1 -15 -10 3 -7 0 -16 -7 -21 -8 -4 -10 -3 -5 4 11 19 -5 14 -21 -5 -8
-10 -12 -13 -9 -8 2 6 -4 11 -14 11 -14 0 -16 -3 -8 -13 7 -9 7 -13 -1 -13
-19 0 -26 -3 -42 -24 -12 -15 -18 -16 -24 -6 -6 9 -4 11 5 5 9 -5 11 -4 6 4
-11 17 -25 4 -21 -20 3 -17 2 -19 -10 -9 -11 9 -18 9 -32 0 -17 -11 -17 -11 0
-6 11 4 16 2 11 -5 -3 -6 -17 -9 -29 -7 -18 4 -22 1 -17 -10 3 -9 1 -13 -5 -9
-6 4 -14 0 -17 -9 -5 -14 -9 -14 -23 -3 -15 12 -16 12 -11 -7 3 -13 0 -21 -8
-21 -7 0 -11 4 -8 9 3 4 -2 5 -10 2 -9 -3 -13 -11 -9 -17 4 -6 -2 -8 -15 -5
-12 4 -20 3 -17 -2 3 -4 -5 -10 -16 -13 -13 -4 -18 -10 -14 -17 6 -9 2 -9 -13
-1 -17 9 -23 7 -36 -11 -9 -12 -16 -19 -16 -14 0 5 -7 3 -15 -4 -8 -6 -19 -9
-24 -6 -5 4 -13 1 -17 -5 -5 -8 -3 -9 6 -4 9 6 11 4 6 -4 -6 -9 -13 -8 -29 6
-12 10 -17 12 -10 3 8 -11 8 -18 -3 -28 -9 -8 -14 -9 -14 -2 0 6 -5 8 -10 5
-6 -4 -7 -12 -3 -18 4 -7 0 -6 -10 2 -14 11 -18 11 -23 -3 -4 -10 -13 -15 -21
-12 -9 4 -11 2 -7 -6 5 -8 2 -9 -10 -5 -9 4 -15 3 -12 -2 9 -14 -20 -21 -33
-8 -9 9 -11 7 -5 -8 4 -11 4 -17 -1 -13 -4 4 -14 0 -22 -10 -8 -9 -12 -11 -8
-4 3 6 1 12 -5 12 -6 0 -13 -6 -16 -14 -3 -9 -12 -12 -21 -9 -12 5 -14 3 -8
-8 6 -11 5 -12 -6 -1 -11 10 -17 8 -32 -10 -10 -13 -16 -18 -13 -12 3 6 -4 10
-17 9 -12 -1 -23 -7 -23 -13 -3 -25 -5 -27 -14 -12 -8 12 -10 12 -10 -5 0 -17
-2 -17 -10 -5 -8 12 -10 12 -10 -5 0 -16 -2 -17 -10 -5 -8 12 -10 12 -15 -2
-4 -11 -15 -15 -30 -12 -13 2 -27 -1 -31 -7 -5 -8 -3 -9 6 -4 8 5 11 4 6 -3
-3 -6 -14 -11 -24 -12 -64 -3 -70 -5 -59 -18 9 -11 5 -13 -22 -9 -23 4 -34 1
-38 -9 -3 -8 -12 -13 -19 -10 -8 3 -14 0 -14 -6 0 -7 -4 -7 -14 1 -11 9 -14 8
-12 -6 1 -14 -5 -17 -26 -15 -16 2 -28 -1 -28 -8 0 -6 -5 -8 -12 -4 -8 5 -9 2
-5 -9 8 -21 3 -21 -17 -1 -15 14 -16 14 -16 -3 0 -15 -2 -16 -10 -3 -8 13 -10
12 -10 -4 0 -16 -2 -17 -17 -5 -14 12 -16 12 -8 0 6 -11 2 -13 -18 -9 -15 3
-24 1 -21 -3 3 -5 -1 -9 -10 -9 -8 0 -17 -6 -19 -12 -4 -10 -8 -9 -16 2 -9 13
-11 12 -11 -5 0 -15 -3 -17 -9 -7 -6 11 -10 10 -15 -3 -4 -11 -13 -15 -26 -12
-11 3 -20 0 -20 -6 0 -7 -5 -5 -10 3 -8 13 -10 12 -10 -4 0 -12 -5 -16 -15
-12 -8 3 -15 0 -15 -6 0 -6 -3 -8 -6 -5 -4 3 -15 2 -25 -3 -12 -7 -19 -6 -22
3 -3 6 -6 4 -6 -7 -1 -15 -4 -16 -15 -7 -11 10 -17 8 -25 -6 -8 -14 -10 -15
-11 -3 0 13 -2 13 -9 0 -6 -8 -7 -18 -4 -24 3 -5 1 -6 -6 -2 -6 4 -8 12 -5 18
4 6 -3 4 -16 -5 -17 -11 -27 -13 -36 -6 -8 7 -15 6 -20 -2 -5 -8 -3 -10 7 -4
11 6 11 5 3 -4 -15 -16 -79 -27 -69 -12 4 8 -2 7 -19 0 -14 -7 -23 -16 -20
-21 4 -6 -7 -8 -25 -6 -20 2 -35 -3 -41 -12 -5 -8 -10 -10 -10 -5 0 6 -4 4 -9
-4 -8 -12 -12 -12 -25 -2 -13 11 -17 10 -22 -3 -4 -10 -13 -15 -20 -12 -8 3
-14 0 -14 -6 0 -6 -3 -8 -7 -5 -3 4 -13 1 -21 -6 -9 -6 -13 -7 -9 -1 3 6 0 11
-8 11 -8 0 -12 -4 -9 -9 3 -4 -4 -8 -15 -8 -12 0 -21 -6 -21 -12 0 -9 -4 -8
-10 2 -5 8 -10 10 -10 4 0 -6 -6 -11 -12 -11 -37 -3 -75 -11 -93 -20 -11 -6
-30 -9 -42 -8 -12 1 -19 -3 -16 -8 4 -6 -3 -8 -15 -5 -12 4 -20 3 -17 -2 3 -4
-2 -11 -11 -14 -9 -4 -13 -2 -8 5 4 7 -2 7 -16 -1 -18 -10 -24 -9 -31 1 -7 11
-9 10 -9 -3 0 -9 -5 -20 -12 -24 -7 -5 -8 -3 -3 7 8 12 6 12 -8 0 -11 -8 -17
-9 -17 -3 0 6 -7 9 -15 6 -8 -4 -12 -10 -9 -15 3 -5 -2 -6 -10 -3 -10 4 -16 1
-16 -7 0 -11 -2 -11 -9 0 -8 13 -12 13 -27 0 -15 -12 -18 -12 -22 0 -3 10 -9
7 -19 -10 -8 -13 -12 -16 -9 -7 3 12 1 15 -10 11 -7 -3 -14 -9 -14 -14 0 -13
-34 -11 -49 4 -11 10 -13 9 -8 -6 4 -10 3 -16 -2 -13 -5 3 -22 -1 -39 -10 -25
-12 -36 -13 -53 -4 -12 7 -19 8 -15 2 3 -5 -1 -13 -10 -16 -10 -4 -13 -2 -8 7
6 8 3 8 -9 -1 -9 -8 -21 -11 -26 -8 -5 4 -13 2 -16 -4 -5 -8 -11 -7 -21 1 -12
10 -13 9 -7 -7 6 -17 5 -17 -10 -5 -11 9 -17 10 -17 2 0 -6 -8 -11 -18 -11
-10 0 -24 -6 -31 -12 -11 -10 -13 -10 -7 0 9 15 -10 16 -20 1 -4 -8 -9 -7 -15
2 -7 11 -9 11 -9 1 0 -7 -4 -10 -10 -7 -5 3 -10 2 -10 -3 0 -5 -10 -8 -22 -7
-13 1 -29 -2 -36 -8 -10 -8 -16 -7 -23 4 -6 10 -9 11 -9 1 0 -7 -4 -10 -10 -7
-5 3 -10 2 -10 -4 0 -5 -20 -9 -45 -7 -24 1 -42 -1 -39 -6 3 -5 10 -5 16 -2 7
4 8 2 4 -5 -4 -6 -12 -9 -17 -6 -5 4 -9 1 -9 -5 0 -6 -8 -4 -17 6 -11 11 -18
13 -21 5 -2 -6 -8 -9 -13 -5 -5 3 -9 0 -9 -7 0 -9 -3 -9 -14 0 -11 9 -16 9
-22 0 -5 -8 -3 -9 6 -4 9 5 11 4 6 -4 -6 -9 -11 -9 -24 1 -12 10 -14 10 -8 0
8 -14 -19 -12 -43 2 -11 7 -13 5 -8 -7 7 -18 -13 -19 -25 -2 -4 6 -8 2 -8 -9
0 -15 -3 -16 -14 -7 -11 9 -16 9 -22 0 -5 -8 -3 -9 6 -4 9 6 11 4 5 -4 -5 -9
-10 -10 -18 -2 -7 7 -16 7 -29 0 -10 -5 -18 -7 -18 -4 0 3 -9 1 -19 -5 -14 -7
-22 -7 -26 1 -5 6 -12 4 -21 -8 -9 -13 -13 -14 -14 -4 0 10 -3 11 -13 2 -10
-8 -17 -7 -27 2 -10 9 -11 9 -6 0 4 -7 3 -13 -3 -13 -5 0 -12 6 -14 13 -3 6
-6 3 -6 -8 -1 -17 -3 -17 -11 -5 -6 9 -10 11 -10 3 0 -7 -7 -10 -17 -6 -11 5
-14 3 -8 -6 6 -10 3 -11 -15 -1 -15 8 -20 8 -16 1 5 -7 -4 -11 -24 -11 -22 0
-29 4 -25 13 4 6 0 4 -8 -5 -8 -10 -17 -15 -20 -11 -4 3 -7 0 -7 -8 0 -12 -2
-11 -10 1 -7 12 -12 12 -22 2 -16 -16 -31 -16 -23 1 4 6 1 5 -7 -3 -8 -10 -26
-15 -46 -13 -18 2 -31 -1 -27 -6 6 -11 -14 -9 -34 3 -10 7 -12 6 -6 -4 6 -10
4 -12 -8 -7 -10 4 -17 1 -17 -6 0 -8 -4 -6 -10 3 -5 8 -10 10 -10 4 0 -6 -14
-10 -30 -9 -17 1 -33 -2 -36 -7 -3 -5 -13 -3 -22 4 -13 11 -14 11 -7 -1 6 -11
3 -13 -13 -9 -12 4 -22 2 -22 -3 0 -5 -5 -9 -11 -9 -5 0 -7 6 -3 13 6 9 5 9
-8 0 -8 -7 -18 -10 -21 -6 -4 3 -7 1 -7 -6 0 -8 -5 -9 -19 -1 -14 7 -22 7 -27
-1 -3 -6 -15 -9 -25 -6 -11 3 -19 1 -19 -3 0 -5 -12 -7 -26 -4 -16 3 -23 1
-19 -6 3 -5 1 -10 -4 -10 -6 0 -11 6 -11 13 0 6 -5 4 -11 -6 -10 -17 -12 -17
-28 -2 -21 18 -37 5 -39 -32 0 -16 4 -21 19 -18 10 2 19 -2 19 -8 0 -7 4 -6
10 3 5 8 10 11 10 5 0 -5 5 -3 10 5 7 11 10 11 10 2 0 -8 5 -10 12 -6 7 5 25
7 40 6 14 -1 30 3 34 9 5 8 9 7 14 -2 7 -10 11 -10 24 0 13 11 16 11 16 0 0
-11 2 -11 10 1 6 10 10 11 10 3 0 -7 5 -13 11 -13 5 0 7 6 3 13 -5 8 -2 8 9
-2 9 -7 17 -9 17 -3 0 5 9 12 20 15 11 3 18 1 14 -4 -3 -5 2 -9 10 -9 9 0 16
6 16 13 0 9 3 8 9 -2 6 -9 11 -10 15 -2 4 6 12 9 17 6 5 -4 18 -8 30 -10 16
-3 18 -1 10 9 -15 17 21 15 43 -3 14 -12 16 -11 9 5 -6 16 -5 17 9 6 13 -10
17 -10 21 0 4 10 8 10 16 -2 10 -13 11 -13 11 0 0 13 1 13 10 0 5 -8 10 -10
10 -5 0 6 9 11 20 11 11 0 20 -5 20 -11 0 -5 5 -3 10 5 5 8 10 12 10 9 0 -4
15 -3 34 1 18 4 40 3 49 -2 11 -6 19 -3 26 9 6 10 11 12 11 6 0 -7 7 -13 16
-13 8 0 12 4 9 10 -4 6 2 7 18 1 16 -6 28 -6 36 2 8 8 11 8 11 -1 0 -6 7 -9
15 -6 8 4 12 11 8 17 -4 6 -1 7 8 1 7 -4 36 -8 64 -9 27 0 56 -4 62 -8 9 -5
11 -3 7 6 -6 16 37 18 48 2 5 -6 8 -6 8 1 0 6 10 10 23 9 12 -1 28 3 36 9 11
8 13 8 7 -2 -8 -13 19 -13 41 1 6 4 15 2 19 -4 4 -8 9 -7 15 2 7 11 9 11 9 -1
0 -13 1 -13 10 0 9 13 11 13 20 0 9 -13 10 -13 10 0 0 13 1 13 10 0 8 -12 10
-12 11 5 0 11 3 14 6 7 2 -6 9 -10 14 -6 5 3 9 -1 9 -8 0 -9 3 -9 10 2 9 13
11 13 20 0 8 -12 10 -12 10 -1 0 9 8 12 25 9 14 -3 28 -1 32 5 4 6 10 3 14 -9
7 -17 8 -17 8 -1 1 19 21 24 21 5 0 -10 3 -9 9 1 6 10 10 10 16 1 6 -9 9 -9
16 1 7 11 11 10 24 -6 15 -20 15 -20 8 0 -6 17 -5 18 9 7 13 -10 17 -10 21 0
4 10 8 10 16 -2 6 -8 11 -10 11 -4 0 7 11 9 26 6 16 -3 25 -1 21 5 -3 5 4 8
16 7 12 -1 22 -3 22 -4 0 -1 19 -3 42 -4 23 -1 40 1 38 4 -2 4 6 5 18 4 12 -1
22 -3 22 -4 0 -1 19 -3 42 -4 23 -1 40 1 38 4 -4 6 31 5 45 0 17 -7 76 -3 83
5 4 7 10 7 15 0 4 -6 68 -10 154 -10 82 0 148 -3 148 -7 0 -4 13 -3 29 2 21 6
31 5 35 -3 3 -8 5 -8 5 -1 1 14 51 5 51 -9 0 -6 6 -3 13 8 11 14 16 15 22 5 6
-9 4 -11 -5 -5 -9 6 -11 4 -5 -4 5 -9 10 -10 18 -2 13 13 31 15 23 3 -3 -5 1
-9 9 -9 8 0 11 5 8 11 -4 6 1 5 10 -3 14 -11 17 -11 17 0 0 11 2 11 10 -1 8
-12 11 -13 19 -1 5 7 11 9 14 4 4 -5 25 -10 48 -11 23 -1 48 -7 56 -13 11 -10
12 -8 7 6 -6 14 -4 16 7 9 8 -4 22 -7 32 -6 9 2 17 -1 17 -6 0 -6 7 -12 14
-15 11 -4 13 -1 9 10 -5 13 -3 13 15 4 11 -6 32 -11 47 -11 14 0 24 -4 21 -8
-3 -5 1 -9 9 -9 8 0 12 4 9 9 -8 13 10 10 25 -4 8 -7 11 -8 8 -2 -7 12 29 12
40 -1 5 -4 3 -5 -4 -1 -6 3 -14 2 -17 -3 -3 -5 10 -7 29 -4 19 3 35 1 35 -4 0
-10 40 -11 56 -1 5 4 23 -4 38 -17 22 -19 33 -22 52 -15 17 7 23 6 21 -3 -1
-7 6 -11 17 -9 11 2 15 -1 11 -7 -3 -6 -2 -11 4 -11 5 0 12 6 14 13 4 10 6 10
6 0 1 -7 6 -13 12 -13 5 0 7 6 3 13 -4 6 4 2 17 -9 13 -12 30 -19 38 -16 8 3
11 0 7 -7 -5 -7 2 -11 18 -11 14 0 26 -5 26 -10 0 -6 11 -15 25 -20 14 -5 25
-14 25 -20 0 -5 6 -10 13 -10 6 0 21 -13 31 -29 11 -16 26 -27 33 -24 9 4 11
0 7 -11 -3 -9 -1 -16 6 -16 6 0 9 -4 6 -9 -4 -5 -1 -11 6 -13 7 -3 11 -19 10
-42 -2 -28 0 -36 10 -30 10 6 9 3 -1 -9 -7 -9 -11 -26 -8 -36 3 -12 -1 -22
-10 -25 -8 -3 -11 -10 -8 -16 3 -5 1 -10 -5 -10 -6 0 -9 -4 -6 -9 4 -5 0 -12
-6 -14 -10 -4 -10 -6 1 -6 8 -1 5 -9 -10 -22 -13 -11 -17 -17 -9 -13 13 7 13
5 1 -9 -7 -9 -17 -14 -22 -11 -5 3 -6 -1 -3 -9 3 -8 -2 -17 -11 -21 -11 -4
-15 -12 -11 -22 4 -12 2 -15 -9 -10 -14 5 -20 -5 -16 -27 1 -5 -9 -5 -21 -2
-23 7 -23 7 -3 -10 11 -9 14 -14 7 -10 -6 3 -15 -1 -18 -9 -3 -9 -10 -13 -15
-10 -5 3 -9 -2 -9 -10 0 -8 -9 -20 -20 -26 -12 -7 -18 -16 -13 -23 5 -9 3 -9
-9 0 -18 15 -32 5 -18 -12 8 -9 6 -14 -5 -19 -9 -3 -13 -2 -10 4 3 5 -1 7 -9
4 -8 -3 -13 -14 -11 -27 4 -21 4 -22 -10 -3 -15 19 -15 19 -15 -2 0 -14 -9
-27 -25 -34 -14 -6 -25 -17 -25 -24 0 -6 -7 -14 -15 -18 -10 -3 -15 1 -15 11
0 21 -9 12 -13 -13 -5 -36 -17 -47 -35 -32 -12 10 -14 10 -8 1 4 -7 2 -13 -3
-13 -6 0 -11 -7 -11 -15 0 -9 -6 -12 -17 -8 -11 4 -14 3 -9 -6 5 -7 2 -10 -5
-9 -7 2 -13 -4 -14 -12 0 -8 -4 -15 -10 -15 -26 -2 -55 -18 -49 -27 5 -7 -2
-9 -19 -6 -23 5 -25 3 -16 -14 9 -18 8 -18 -10 -9 -18 10 -20 9 -14 -6 6 -16
5 -16 -10 -4 -15 12 -17 12 -12 -1 7 -17 -17 -40 -36 -36 -8 2 -13 -3 -11 -10
1 -8 -2 -11 -8 -7 -5 3 -10 1 -10 -6 0 -9 -3 -9 -14 0 -11 9 -18 7 -34 -13
-10 -14 -22 -22 -26 -19 -3 3 -6 1 -6 -4 0 -6 6 -14 13 -16 7 -3 5 -6 -5 -6
-25 -1 -68 -23 -63 -31 3 -4 -8 -6 -24 -5 -18 1 -28 -3 -28 -11 0 -10 4 -11
13 -3 8 7 14 6 20 -2 4 -7 3 -9 -4 -5 -6 3 -14 1 -17 -5 -4 -5 -13 -8 -20 -5
-7 2 -16 -2 -19 -10 -3 -8 -12 -14 -21 -14 -8 0 -15 -6 -15 -12 0 -9 -4 -8
-10 2 -8 13 -10 12 -10 -4 0 -11 -3 -17 -6 -13 -4 3 -13 -1 -21 -9 -8 -8 -19
-12 -24 -9 -5 4 -9 -2 -9 -11 0 -10 -3 -14 -6 -11 -4 3 -18 -3 -32 -14 -20
-15 -27 -17 -34 -7 -6 11 -8 10 -8 0 0 -7 -4 -10 -10 -7 -6 3 -7 -1 -4 -9 4
-11 0 -16 -15 -16 -12 0 -21 -4 -21 -10 0 -5 -8 -10 -17 -10 -10 0 -25 -5 -33
-11 -12 -9 -11 -10 5 -5 20 6 20 6 1 -9 -16 -12 -22 -12 -28 -2 -6 9 -8 9 -8
0 0 -7 -7 -13 -16 -13 -8 0 -13 -4 -10 -9 3 -5 -1 -12 -10 -15 -8 -3 -13 -2
-10 2 3 5 -1 9 -8 9 -8 0 -12 -6 -9 -13 2 -6 -1 -15 -8 -20 -8 -4 -10 -3 -5 4
4 7 2 12 -3 12 -10 0 -15 -14 -12 -33 1 -4 -8 -3 -18 3 -20 10 -38 -1 -27 -19
3 -4 -4 -8 -17 -7 -13 1 -21 -4 -19 -12 2 -10 -2 -10 -20 -1 -20 11 -21 10
-11 -2 10 -12 8 -15 -10 -16 -12 -1 -27 -10 -34 -19 -7 -10 -13 -12 -13 -6 0
7 -5 12 -10 12 -6 0 -9 -3 -9 -7 4 -23 -3 -30 -25 -26 -13 3 -27 -1 -31 -8 -6
-9 -3 -10 10 -5 18 6 18 6 -1 -15 -10 -12 -14 -19 -7 -16 6 4 14 1 16 -5 3 -8
6 -6 6 5 1 14 5 16 18 8 13 -7 23 -5 35 6 12 11 18 12 18 4 0 -7 5 -9 10 -6 6
4 7 11 4 17 -4 6 -2 8 4 4 6 -3 13 -2 17 4 4 6 13 5 25 -2 10 -7 16 -16 13
-22 -3 -5 -1 -6 6 -2 6 4 9 12 6 17 -4 5 -1 9 5 9 6 0 8 5 4 13 -5 8 -2 8 9
-2 11 -9 17 -10 17 -2 0 6 5 11 11 11 5 0 7 -6 4 -12 -4 -7 0 -5 8 4 10 13 16
15 25 6 9 -9 12 -9 12 1 0 7 5 9 10 6 6 -3 10 -1 10 5 0 6 4 8 10 5 5 -3 18
-2 28 4 11 6 24 6 37 -2 17 -9 18 -8 8 4 -10 13 -6 15 27 14 21 -1 36 3 34 7
-3 4 6 9 20 9 45 2 51 5 48 17 -2 10 3 10 18 2 14 -8 20 -8 20 0 0 6 5 8 10 5
6 -4 18 -1 27 7 9 7 14 8 10 2 -3 -6 0 -11 8 -11 8 0 12 3 10 7 -2 4 7 12 20
18 16 7 26 8 30 1 4 -5 11 -7 16 -3 5 3 7 10 4 15 -4 5 4 5 19 -1 20 -7 24 -6
19 5 -3 8 0 15 6 15 6 0 11 -5 11 -11 0 -8 4 -8 15 1 8 6 19 9 25 5 5 -3 10 2
10 12 0 15 2 16 10 3 9 -13 14 -7 11 12 0 4 6 5 14 2 8 -4 13 -9 10 -13 -2 -4
3 -8 11 -8 9 0 13 6 9 15 -5 12 -3 13 10 2 13 -11 15 -11 13 -1 -2 7 7 17 20
22 15 6 21 5 17 -1 -3 -6 -1 -10 4 -10 6 0 11 5 11 11 0 6 9 9 20 6 11 -3 18
-2 15 3 -3 4 3 14 12 21 12 10 15 10 9 1 -12 -20 66 -6 81 14 7 10 13 13 13 8
0 -6 7 -11 15 -11 8 0 11 5 8 10 -4 6 0 8 10 4 12 -4 17 -1 17 10 0 12 3 13
13 4 10 -8 17 -7 26 2 9 9 14 9 22 -3 9 -12 10 -11 6 6 -3 13 1 21 9 21 7 0
10 -5 7 -11 -3 -6 0 -5 8 2 7 6 21 12 32 12 10 0 16 4 12 9 -3 6 4 8 15 6 11
-2 20 1 20 7 0 6 7 5 17 -3 10 -8 14 -9 10 -2 -4 6 -3 14 3 18 5 3 10 1 10 -4
0 -6 5 -11 11 -11 5 0 7 5 4 10 -5 9 1 12 21 9 4 0 11 5 15 13 7 10 9 10 9 -2
0 -10 7 -7 21 10 17 21 20 22 15 5 -5 -18 -4 -18 6 -4 7 9 19 14 26 12 6 -3
12 0 12 7 0 6 5 8 10 5 6 -3 10 -1 10 6 0 8 5 7 17 -2 11 -10 14 -10 9 -1 -4
7 -1 12 9 12 10 0 13 -5 9 -12 -4 -7 -3 -8 5 -4 6 4 9 12 6 17 -6 8 2 11 21 8
4 0 11 5 15 13 5 7 9 8 9 2 0 -6 6 -11 14 -11 8 0 12 6 9 14 -5 12 15 18 41
14 4 -1 14 3 22 10 7 6 19 7 26 3 8 -5 8 -1 -2 11 -14 17 -14 18 8 6 21 -11
27 -8 23 13 -1 5 6 3 16 -4 10 -8 15 -10 11 -6 -4 5 -3 15 3 23 9 10 15 10 25
2 11 -9 14 -8 14 0 0 7 5 9 10 6 6 -3 10 -2 10 3 0 5 9 12 19 15 15 3 18 1 15
-12 -3 -9 2 -4 11 12 14 23 19 26 37 16 11 -6 18 -7 14 -1 -7 12 22 24 37 15
9 -5 9 -3 0 8 -10 12 -8 15 7 15 10 0 16 -5 13 -10 -3 -5 -1 -6 5 -2 7 4 12
15 12 24 0 15 2 15 10 2 8 -12 10 -12 10 -1 0 11 3 11 18 0 9 -7 14 -10 10 -5
-12 14 15 35 30 23 10 -8 12 -7 10 4 -2 9 4 13 16 11 10 -2 15 1 12 6 -3 6 1
13 10 16 10 4 13 2 8 -7 -5 -9 -4 -9 7 1 16 15 33 16 23 0 -4 -7 -3 -8 5 -4 9
6 9 11 -1 24 -11 13 -11 14 1 8 8 -5 17 -3 22 5 6 10 9 11 9 2 0 -7 5 -13 11
-13 6 0 8 7 4 18 -5 14 -4 15 7 4 10 -10 16 -8 30 10 16 21 18 21 12 3 -4 -17
-3 -16 8 3 10 15 17 19 24 12 8 -8 15 -5 25 7 13 16 12 17 -3 4 -12 -9 -18
-10 -18 -2 0 12 2 13 42 15 15 1 31 6 35 10 5 5 2 6 -7 1 -11 -6 -12 -5 -5 3
6 7 23 13 37 14 18 2 24 7 20 18 -3 8 -2 12 3 8 4 -4 15 -2 23 5 13 10 14 9 7
-2 -5 -10 -4 -12 3 -7 7 4 12 15 12 24 0 13 2 14 8 4 5 -7 16 -10 26 -6 14 5
14 9 4 22 -11 13 -11 14 0 8 8 -5 21 -1 33 10 10 9 19 14 19 9 0 -4 12 0 26
10 18 12 24 13 19 4 -3 -8 0 -6 8 4 9 11 22 15 33 11 16 -5 16 -4 4 5 -8 6
-10 11 -5 12 6 1 16 2 23 3 7 0 16 6 20 13 4 6 14 13 22 15 8 2 21 10 28 18
12 13 13 13 7 0 -4 -10 -2 -9 8 3 8 9 20 17 26 17 7 0 9 5 5 12 -4 7 -3 8 5 4
7 -4 20 2 32 16 11 13 18 17 14 11 -4 -8 0 -13 10 -13 9 0 14 4 10 9 -3 5 4
12 15 16 11 4 18 11 15 16 -5 8 16 14 38 10 4 0 7 4 7 10 0 6 9 9 19 6 15 -3
18 -1 14 11 -5 11 -3 13 7 7 10 -6 12 -4 7 8 -3 9 -3 16 1 16 26 -4 42 2 36
14 -6 9 -5 9 8 0 19 -17 31 -4 16 16 -7 9 -8 13 -4 9 5 -4 16 -2 24 5 13 9 14
9 8 0 -4 -7 -2 -13 3 -13 6 0 11 7 11 15 0 8 5 15 11 15 5 0 7 4 4 10 -3 6 1
7 9 4 10 -4 16 -1 16 7 0 7 3 10 6 6 3 -3 14 3 25 14 11 11 25 17 31 13 8 -5
9 -1 4 11 -6 16 -4 16 11 4 11 -9 14 -10 9 -1 -4 7 -2 12 4 12 6 0 8 5 4 12
-5 8 -2 9 9 5 10 -4 17 -2 17 4 0 6 7 9 14 6 10 -4 13 -1 10 7 -3 8 0 17 7 22
8 5 10 3 5 -7 -4 -8 -1 -6 7 3 8 10 17 15 20 11 4 -3 7 -1 7 6 0 7 5 9 13 5 7
-5 6 0 -3 11 -8 10 -10 16 -3 12 6 -4 15 -2 18 4 4 6 18 8 34 4 25 -6 25 -6 6
9 -18 14 -19 15 -2 16 10 0 16 4 12 9 -3 5 0 13 6 17 8 5 9 3 4 -6 -5 -8 -3
-11 6 -8 8 3 13 11 12 17 -2 6 1 11 7 11 5 0 26 16 46 35 38 37 55 46 33 18
-13 -16 -12 -17 3 -5 9 8 15 19 12 27 -5 13 11 28 31 31 6 0 16 2 24 2 7 1 11
8 8 16 -7 18 11 36 30 29 8 -3 13 0 11 8 -2 8 3 13 10 12 6 -2 12 3 12 11 0 8
5 18 12 22 7 5 9 2 4 -7 -4 -8 -1 -5 6 5 17 25 49 57 74 74 10 7 13 10 5 6 -9
-5 -12 -3 -7 4 4 7 14 12 22 12 8 0 13 6 11 13 -1 6 4 11 11 10 6 -2 12 2 12
8 0 5 6 7 13 3 8 -5 7 -2 -2 9 -12 15 -12 17 2 12 8 -4 18 -1 23 6 5 8 3 10
-7 5 -8 -4 -5 0 6 9 11 9 19 20 18 25 -2 5 6 7 16 5 15 -3 18 2 16 21 -2 20 0
22 12 12 8 -6 13 -7 12 -2 -3 19 1 34 12 34 5 0 7 -5 3 -12 -5 -7 -3 -8 5 -3
8 5 9 11 3 17 -7 7 -4 16 9 29 20 20 34 26 24 9 -3 -6 1 -7 10 -3 9 3 12 9 7
12 -6 3 -6 15 -1 29 9 23 20 31 16 10 -2 -7 1 -3 7 10 5 12 14 22 19 22 4 0 5
6 1 13 -5 8 -2 7 9 -2 10 -8 20 -11 24 -7 3 3 2 6 -4 6 -6 0 -13 7 -16 14 -4
11 -1 13 10 9 11 -4 14 -2 9 5 -4 7 -2 12 4 12 6 0 8 5 5 10 -6 10 6 14 35 11
12 -1 12 0 2 7 -15 10 -7 38 14 46 9 3 13 10 10 15 -3 5 1 12 10 15 9 3 14 13
11 21 -4 10 -1 12 10 8 12 -5 15 -2 10 10 -3 9 -1 19 5 23 6 4 8 3 4 -4 -3 -6
-3 -13 2 -16 7 -4 11 9 14 51 1 7 5 10 10 7 17 -11 29 7 16 24 -8 9 -8 13 -2
9 11 -6 26 14 28 36 1 4 7 12 15 16 8 5 10 14 5 22 -6 12 -5 12 8 1 14 -11 16
-10 14 5 -2 10 8 26 23 36 l26 19 -25 -7 c-21 -5 -22 -4 -7 5 9 6 14 17 11 23
-4 7 -4 9 1 5 12 -12 36 28 29 49 -5 15 -4 15 5 3 6 -8 11 -13 12 -10 11 60
17 73 32 67 9 -3 12 5 12 28 -1 31 26 79 39 70 3 -3 2 1 -4 7 -7 9 -2 19 17
36 16 13 23 21 16 18 -6 -4 -14 -2 -17 3 -3 5 4 11 16 14 19 5 20 8 7 24 -7
10 -9 15 -5 11 5 -5 16 1 23 12 8 11 20 17 26 14 8 -5 8 -3 0 7 -19 20 -17 53
3 45 15 -6 15 -4 3 11 -13 15 -12 16 6 9 15 -5 17 -4 8 5 -13 13 -6 42 8 33 5
-3 6 3 2 12 -5 13 -3 15 8 9 11 -7 11 -5 -1 10 -14 17 -13 18 4 12 15 -6 17
-5 8 6 -9 10 -8 19 3 34 8 12 16 33 17 47 1 15 9 26 18 27 10 0 11 2 3 6 -7 2
-13 9 -13 14 0 6 5 7 12 3 7 -4 8 -3 4 5 -4 6 -2 19 6 28 11 14 11 16 -1 8
-10 -6 -12 -4 -7 4 5 7 14 10 21 7 14 -5 14 18 0 31 -4 4 -5 2 0 -6 6 -10 4
-12 -4 -7 -9 6 -9 11 0 22 6 8 8 14 3 14 -5 0 0 7 10 15 11 8 16 15 12 15 -5
0 -3 7 4 15 9 10 9 15 1 15 -6 0 -11 5 -11 11 0 6 6 9 14 6 10 -4 12 0 9 14
-3 12 0 19 8 19 11 0 11 2 0 9 -11 7 -12 13 -4 23 6 7 9 21 8 31 -2 9 0 15 4
13 12 -8 30 30 21 45 -5 8 -4 19 3 28 7 9 7 12 1 8 -6 -3 -11 0 -11 7 0 8 6
12 14 9 11 -4 11 0 3 21 -6 18 -6 25 0 21 6 -4 10 11 10 37 0 31 3 39 10 28 5
-8 10 -10 10 -4 0 5 -5 15 -12 22 -9 9 -9 12 0 12 7 0 12 6 11 13 -3 27 1 38
14 31 9 -6 9 -4 1 7 -12 16 -12 29 0 48 5 8 4 16 -5 22 -10 6 -10 9 -2 9 7 0
10 7 6 17 -4 10 -2 14 4 10 7 -5 9 0 6 13 -3 11 1 28 8 37 12 15 12 16 -1 8
-13 -8 -13 -7 -1 8 11 14 11 17 0 17 -12 0 -12 2 0 9 11 7 11 9 0 14 -12 5
-12 6 0 6 11 1 11 4 0 18 -12 14 -12 16 1 11 12 -4 14 3 11 44 -2 39 0 49 9
43 9 -6 11 -4 4 6 -12 20 -14 38 -3 45 5 3 9 10 9 15 0 6 -4 7 -10 4 -6 -3 -7
1 -4 9 3 9 11 13 18 9 6 -4 3 5 -6 19 -13 19 -15 29 -6 34 7 5 8 3 3 -6 -6 -9
-4 -11 4 -5 9 5 10 10 2 18 -14 14 -14 30 0 21 8 -5 8 -1 0 14 -8 15 -8 21 1
24 10 4 10 10 0 32 -7 15 -8 24 -2 21 5 -3 10 1 10 10 0 9 -4 13 -10 10 -5 -3
-10 -2 -10 4 0 5 6 12 13 14 9 4 9 8 -2 15 -9 6 -10 15 -5 23 12 19 13 230 2
253 -7 13 -7 16 1 12 6 -4 11 -3 11 3 0 5 -6 11 -12 14 -10 4 -10 7 0 18 6 7
12 20 12 28 0 14 -1 14 -10 1 -5 -8 -10 -10 -10 -4 0 5 5 15 12 22 9 9 9 18 0
37 -7 15 -8 24 -2 20 5 -3 10 1 10 10 0 10 -5 13 -12 9 -8 -5 -9 -2 -5 9 3 9
2 19 -4 23 -6 4 -6 11 2 20 6 8 9 23 6 34 -3 11 -1 22 3 25 10 6 7 34 -6 43
-15 11 -17 102 -2 102 10 0 9 3 -1 9 -8 5 -12 18 -8 30 3 12 -1 28 -10 36 -9
10 -10 15 -2 15 9 0 8 4 -1 15 -9 11 -9 15 -1 15 7 0 9 5 4 13 -4 6 -8 19 -8
27 0 8 -4 21 -8 28 -5 6 -4 12 1 12 6 0 7 14 3 33 -4 17 -7 41 -6 52 0 11 -7
26 -15 33 -8 8 -10 11 -4 8 7 -3 14 3 17 14 3 13 1 18 -6 13 -6 -4 -8 0 -4 10
3 9 2 19 -4 23 -7 4 -6 10 1 19 8 10 8 15 0 20 -7 4 -10 16 -7 26 3 11 2 17
-3 14 -15 -9 -21 29 -7 40 12 9 12 12 1 23 -16 15 -19 36 -4 27 6 -3 7 1 4 9
-3 9 -11 16 -16 16 -6 0 -7 7 -4 16 4 9 1 23 -5 30 -9 11 -8 14 1 14 9 0 10 3
1 13 -6 8 -8 17 -4 20 3 4 0 14 -8 24 -11 14 -11 15 0 9 8 -6 7 1 -4 18 -17
25 -17 26 1 20 17 -5 17 -4 2 6 -10 6 -15 17 -11 27 4 9 2 14 -3 11 -5 -3 -9
7 -10 23 -1 18 3 26 10 22 6 -4 2 4 -9 17 -11 13 -15 20 -8 17 7 -5 9 0 6 13
-3 11 -10 20 -15 20 -6 0 -4 7 3 17 11 13 11 17 2 20 -7 3 -13 9 -13 14 0 6 5
7 12 3 7 -4 8 -3 4 4 -4 7 -15 12 -24 12 -14 0 -15 2 -3 9 8 5 16 17 17 25 1
9 -1 14 -6 11 -4 -3 -13 2 -19 9 -9 10 -9 16 -1 21 8 5 8 11 -1 21 -9 11 -8
14 7 14 17 0 17 1 -1 14 -11 8 -24 12 -29 9 -5 -4 -6 -1 -2 6 4 6 11 9 15 7 3
-3 7 4 7 14 0 13 -4 16 -11 10 -8 -7 -10 -1 -7 20 3 19 0 30 -7 30 -9 0 -9 5
0 21 9 17 8 20 -2 14 -9 -6 -11 -3 -6 8 4 10 0 20 -11 26 -11 7 -12 11 -4 11
7 0 10 5 7 10 -3 6 0 10 7 10 8 0 6 5 -4 11 -10 5 -18 19 -18 30 0 11 -4 17
-10 14 -15 -9 -12 2 6 19 14 15 14 16 -2 16 -12 0 -14 3 -6 13 9 11 5 13 -18
13 -20 0 -27 -3 -21 -9z m-783 -2542 c-8 -8 -18 -15 -22 -15 -3 0 -1 7 6 15 7
8 17 15 22 15 5 0 3 -7 -6 -15z m-146 -179 c0 -3 -4 -8 -10 -11 -5 -3 -10 -1
-10 4 0 6 5 11 10 11 6 0 10 -2 10 -4z m1120 -280 c0 -3 -4 -8 -10 -11 -5 -3
-10 -1 -10 4 0 6 5 11 10 11 6 0 10 -2 10 -4z m-3960 -1280 c0 -3 -4 -8 -10
-11 -5 -3 -10 -1 -10 4 0 6 5 11 10 11 6 0 10 -2 10 -4z m106 -1654 c-18 -16
-18 -16 -6 6 6 13 14 21 18 18 3 -4 -2 -14 -12 -24z m214 -236 c0 -2 -7 -7
-16 -10 -8 -3 -12 -2 -9 4 6 10 25 14 25 6z"/>
<path d="M1002 11881 c-11 -7 -11 -9 0 -14 9 -3 15 1 15 9 0 8 -1 14 -1 14 -1
0 -7 -4 -14 -9z"/>
<path d="M13903 11278 c-17 -23 -25 -44 -9 -24 9 11 22 23 28 28 9 5 9 8 2 8
-6 0 -16 -6 -21 -12z"/>
<path d="M13835 11221 c-3 -5 -2 -12 3 -15 5 -3 9 1 9 9 0 17 -3 19 -12 6z"/>
<path d="M13759 11133 c-13 -16 -12 -17 4 -4 9 7 17 15 17 17 0 8 -8 3 -21
-13z"/>
<path d="M1856 10941 c9 -9 34 -9 34 -1 0 5 -9 8 -20 7 -10 -1 -17 -3 -14 -6z"/>
<path d="M2090 10781 c0 -7 -5 -9 -12 -5 -7 5 -8 3 -3 -5 5 -9 10 -10 18 -2 6
6 8 14 4 18 -4 3 -7 1 -7 -6z"/>
<path d="M14835 10281 c-3 -5 -2 -12 3 -15 5 -3 9 1 9 9 0 17 -3 19 -12 6z"/>
<path d="M6476 9312 c-3 -5 1 -9 9 -9 8 0 12 4 9 9 -3 4 -7 8 -9 8 -2 0 -6 -4
-9 -8z"/>
<path d="M6877 9243 c-4 -3 -7 -20 -7 -37 0 -18 3 -26 8 -19 4 7 13 9 21 4 17
-11 51 -2 51 13 0 6 5 4 10 -4 12 -21 63 -18 66 3 1 10 -2 17 -7 17 -6 0 -8 4
-5 8 3 5 -13 7 -34 5 -28 -3 -40 0 -40 9 0 9 -3 9 -10 -2 -8 -12 -10 -12 -10
-1 0 11 -3 11 -17 0 -11 -10 -14 -10 -9 -1 7 12 -6 17 -17 5z"/>
<path d="M8465 9240 c-4 -7 -21 -10 -39 -8 -34 4 -75 -25 -54 -38 20 -13 63
-9 76 6 10 11 12 12 6 1 -5 -10 -3 -13 8 -8 9 3 20 1 24 -3 13 -13 34 3 39 27
4 23 -20 39 -31 21 -4 -7 -9 -6 -14 2 -6 9 -9 9 -15 0z"/>
<path d="M11570 9210 c0 -5 5 -10 11 -10 5 0 7 5 4 10 -3 6 -8 10 -11 10 -2 0
-4 -4 -4 -10z"/>
<path d="M14016 9212 c-3 -5 1 -9 9 -9 8 0 12 4 9 9 -3 4 -7 8 -9 8 -2 0 -6
-4 -9 -8z"/>
<path d="M13955 9161 c-3 -5 -2 -12 3 -15 5 -3 9 1 9 9 0 17 -3 19 -12 6z"/>
<path d="M11756 9147 c3 -10 9 -15 12 -12 3 3 0 11 -7 18 -10 9 -11 8 -5 -6z"/>
<path d="M3525 9101 c-3 -5 -2 -12 3 -15 5 -3 9 1 9 9 0 17 -3 19 -12 6z"/>
<path d="M13586 8848 c3 -5 10 -6 15 -3 13 9 11 12 -6 12 -8 0 -12 -4 -9 -9z"/>
<path d="M13525 8800 c3 -5 8 -10 11 -10 2 0 4 5 4 10 0 6 -5 10 -11 10 -5 0
-7 -4 -4 -10z"/>
<path d="M1941 8754 c0 -11 3 -14 6 -6 3 7 2 16 -1 19 -3 4 -6 -2 -5 -13z"/>
<path d="M3446 8718 c3 -5 10 -6 15 -3 13 9 11 12 -6 12 -8 0 -12 -4 -9 -9z"/>
<path d="M13250 8641 c0 -6 4 -13 10 -16 6 -3 7 1 4 9 -7 18 -14 21 -14 7z"/>
<path d="M12975 8491 c-3 -5 -1 -12 5 -16 5 -3 10 1 10 9 0 18 -6 21 -15 7z"/>
<path d="M3680 8466 c0 -2 7 -9 15 -16 9 -7 15 -8 15 -2 0 5 -7 12 -15 16 -8
3 -15 4 -15 2z"/>
<path d="M11590 8380 c0 -5 5 -10 11 -10 5 0 7 5 4 10 -3 6 -8 10 -11 10 -2 0
-4 -4 -4 -10z"/>
<path d="M3872 8316 c7 -8 15 -12 17 -11 5 6 -10 25 -20 25 -5 0 -4 -6 3 -14z"/>
<path d="M2787 8294 c3 -7 9 -14 14 -14 14 0 10 17 -5 23 -10 4 -13 1 -9 -9z"/>
<path d="M11480 8300 c-12 -7 -10 -9 7 -7 12 0 19 5 17 9 -6 10 -6 10 -24 -2z"/>
<path d="M11350 8199 c0 -5 5 -7 10 -4 6 3 10 8 10 11 0 2 -4 4 -10 4 -5 0
-10 -5 -10 -11z"/>
<path d="M11196 8108 c3 -5 10 -6 15 -3 13 9 11 12 -6 12 -8 0 -12 -4 -9 -9z"/>
<path d="M10930 7939 c0 -5 5 -7 10 -4 6 3 10 8 10 11 0 2 -4 4 -10 4 -5 0
-10 -5 -10 -11z"/>
<path d="M4530 7890 c0 -5 5 -10 11 -10 5 0 7 5 4 10 -3 6 -8 10 -11 10 -2 0
-4 -4 -4 -10z"/>
<path d="M8645 3994 c-15 -12 -17 -18 -6 -21 11 -5 11 -7 0 -14 -12 -8 -12
-10 0 -18 11 -7 11 -9 0 -14 -12 -4 -11 -7 1 -16 9 -7 10 -11 3 -11 -6 0 -11
-9 -10 -20 1 -11 5 -20 10 -20 4 0 5 -5 2 -10 -4 -6 -12 -7 -18 -3 -7 3 -4 -3
6 -14 14 -16 15 -23 6 -29 -8 -5 -10 -3 -4 6 6 9 4 11 -5 5 -10 -6 -9 -11 5
-22 11 -7 14 -13 9 -13 -5 0 -11 -11 -12 -26 -1 -17 2 -23 11 -18 9 5 9 4 0
-7 -15 -15 -17 -33 -4 -25 5 4 8 -1 7 -10 -1 -8 -9 -20 -17 -25 -11 -7 -10 -9
5 -9 20 0 20 0 0 -14 -18 -14 -18 -15 -1 -21 17 -7 17 -8 0 -21 -13 -10 -14
-14 -3 -12 19 4 20 -23 1 -45 -14 -16 -13 -17 5 -11 17 7 17 6 5 -9 -11 -14
-11 -17 0 -18 8 0 5 -4 -6 -9 -18 -8 -19 -9 -1 -9 12 -1 16 -6 13 -15 -4 -11
-1 -13 11 -9 9 3 14 3 10 -2 -4 -4 -2 -13 5 -21 30 -33 37 -44 37 -54 0 -6 7
-18 16 -27 8 -9 13 -22 10 -30 -3 -8 -2 -12 3 -9 5 3 11 -4 14 -15 4 -14 10
-18 19 -14 11 7 11 5 0 -6 -10 -11 -8 -17 10 -32 13 -10 17 -16 11 -12 -7 3
-13 1 -13 -4 0 -6 8 -11 18 -11 14 0 15 -2 2 -10 -11 -7 -11 -10 -2 -10 7 0
10 -4 7 -10 -3 -5 -1 -10 5 -10 8 0 8 -6 0 -20 -6 -11 -7 -20 -3 -19 23 4 28
-5 27 -41 0 -21 3 -37 8 -34 4 3 5 10 2 16 -4 7 -2 8 4 4 6 -4 8 -14 5 -22 -3
-9 0 -20 7 -24 11 -7 11 -12 2 -23 -10 -11 -8 -20 10 -43 13 -15 17 -25 10
-20 -6 4 -12 2 -12 -3 0 -6 6 -11 13 -11 8 0 7 -4 -3 -10 -12 -8 -12 -10 -1
-10 8 0 12 -3 8 -6 -3 -3 -1 -18 4 -32 8 -22 8 -23 -6 -12 -13 11 -14 10 -9
-4 3 -9 9 -16 13 -16 3 0 6 -41 6 -90 0 -54 -4 -90 -10 -90 -5 0 -3 -5 5 -10
9 -6 11 -10 3 -10 -7 0 -10 -7 -7 -15 4 -9 0 -15 -7 -15 -10 -1 -9 -4 3 -11
20 -11 13 -39 -11 -39 -12 0 -13 -2 -3 -9 17 -10 16 -19 -5 -50 -8 -13 -11
-21 -6 -18 5 3 9 -9 9 -28 -1 -18 -4 -31 -7 -29 -4 2 -13 -4 -20 -13 -10 -12
-10 -14 -1 -9 6 4 12 2 12 -4 0 -6 -7 -13 -15 -16 -14 -6 -13 -8 2 -19 15 -11
15 -13 -6 -24 -12 -7 -21 -17 -20 -24 3 -27 -2 -48 -10 -43 -5 3 -11 -1 -15
-9 -3 -8 0 -15 7 -16 7 0 3 -4 -8 -9 -11 -5 -14 -9 -6 -9 8 -1 4 -8 -10 -21
-14 -11 -18 -19 -11 -20 11 0 11 -2 0 -13 -7 -8 -20 -16 -28 -20 -12 -4 -11
-6 3 -6 10 -1 15 -6 12 -12 -4 -6 -13 -8 -19 -6 -13 5 -18 -24 -6 -33 4 -3 -7
-16 -24 -29 l-31 -25 25 29 c14 16 18 24 9 17 -9 -6 -20 -8 -24 -4 -5 4 -5 2
-1 -5 3 -6 2 -15 -4 -18 -8 -5 -8 -11 0 -20 13 -16 -4 -30 -22 -19 -9 5 -8 2
1 -9 12 -15 12 -17 -3 -11 -11 4 -16 1 -16 -11 0 -11 -5 -15 -16 -11 -8 3 -13
2 -9 -3 3 -5 -1 -12 -7 -15 -7 -3 -2 -4 12 -1 23 5 23 4 5 -5 -11 -6 -29 -24
-40 -40 -11 -16 -24 -28 -30 -27 -5 1 -9 -4 -7 -11 1 -6 -4 -11 -10 -10 -7 2
-12 -3 -10 -9 1 -7 -6 -13 -17 -13 -10 0 -25 -8 -32 -17 -13 -17 -12 -17 6 -4
19 14 19 14 4 -3 -9 -9 -25 -18 -36 -19 -14 -1 -19 -6 -15 -16 3 -8 1 -12 -5
-8 -6 4 -13 0 -16 -7 -4 -10 -16 -13 -34 -10 l-28 4 24 -13 c19 -11 20 -15 8
-20 -9 -3 -18 -1 -21 6 -3 9 -5 8 -5 -1 -1 -7 -6 -10 -11 -7 -6 4 -10 3 -9 -2
3 -20 -2 -25 -16 -13 -13 11 -14 10 -10 -3 4 -8 1 -18 -6 -23 -7 -4 -10 -3 -6
3 3 5 0 10 -7 10 -8 0 -12 -7 -8 -15 3 -10 1 -13 -6 -8 -7 4 -12 2 -12 -4 0
-6 -4 -8 -10 -5 -5 3 -10 2 -10 -4 0 -6 -6 -8 -14 -5 -8 3 -19 -3 -26 -16 -8
-15 -15 -18 -24 -11 -11 10 -39 0 -37 -13 3 -18 0 -20 -9 -6 -6 10 -10 11 -10
3 0 -7 -5 -13 -11 -13 -5 0 -7 5 -3 12 4 7 3 8 -4 4 -7 -4 -12 -14 -12 -21 0
-9 -6 -12 -15 -9 -9 4 -15 0 -15 -7 0 -11 -3 -11 -10 1 -8 12 -10 12 -10 1 0
-10 -3 -11 -14 -2 -11 10 -16 9 -24 -4 -6 -11 -22 -17 -45 -17 -21 0 -39 -4
-42 -9 -3 -4 -13 -5 -22 -2 -10 4 -14 2 -10 -4 3 -5 0 -10 -8 -10 -8 0 -12 3
-10 7 2 4 -2 7 -10 7 -8 0 -12 -4 -10 -8 3 -4 -2 -10 -11 -13 -8 -3 -12 -2 -9
4 7 12 -23 9 -44 -4 -11 -7 -13 -5 -8 10 7 18 6 18 -6 2 -11 -13 -16 -15 -25
-6 -7 7 -12 8 -12 2 0 -5 -18 -9 -40 -9 -22 -1 -40 4 -40 10 0 5 -5 3 -10 -5
-8 -12 -10 -12 -10 5 0 12 -3 16 -8 9 -4 -6 -15 -10 -24 -8 -10 1 -18 -3 -18
-9 0 -7 -5 -5 -10 3 -5 8 -10 11 -10 6 0 -5 -7 -3 -15 4 -12 10 -15 10 -15 0
0 -9 -4 -9 -12 -3 -7 6 -23 9 -35 8 -12 -1 -20 2 -18 6 3 3 -6 9 -20 11 -14 3
-22 1 -18 -5 3 -5 0 -7 -8 -5 -8 3 -13 10 -12 15 1 5 -4 10 -12 10 -8 0 -12
-5 -8 -10 3 -5 -5 -2 -18 6 -13 8 -34 14 -46 13 -12 -2 -20 1 -18 5 7 10 -20
19 -44 14 -15 -3 -18 0 -14 12 5 12 1 14 -17 8 -17 -5 -20 -4 -15 5 5 8 3 11
-6 8 -8 -3 -20 2 -27 11 -11 13 -12 13 -6 1 6 -11 2 -10 -13 3 -11 9 -23 14
-26 10 -4 -3 -7 2 -7 13 0 16 -2 17 -10 4 -8 -13 -10 -12 -10 3 0 9 -5 17 -11
17 -5 0 -7 -5 -3 -12 4 -7 3 -8 -5 -4 -8 5 -9 12 -2 20 7 8 5 12 -9 12 -10 0
-16 -5 -13 -10 3 -5 1 -6 -5 -2 -7 4 -12 14 -12 23 0 12 -3 13 -13 4 -19 -15
-30 -1 -14 17 10 13 8 14 -11 8 -17 -6 -22 -3 -22 11 0 15 -2 16 -10 3 -8 -12
-10 -10 -10 10 0 20 -2 22 -10 10 -7 -11 -10 -11 -10 -2 0 7 -4 10 -10 7 -5
-3 -10 1 -10 9 0 9 5 16 12 16 6 0 8 3 5 6 -4 4 -13 2 -20 -4 -11 -9 -17 -6
-27 13 -7 13 -17 22 -22 19 -4 -3 -8 2 -8 11 0 9 -4 14 -9 10 -5 -3 -16 3 -23
13 -7 10 -22 24 -33 30 -14 8 -16 12 -5 12 9 0 5 7 -11 18 -14 9 -25 24 -24
34 2 9 -5 18 -16 21 -15 4 -19 12 -15 31 3 14 1 25 -3 23 -5 -1 -17 7 -27 18
-11 12 -15 14 -9 5 8 -13 7 -13 -5 -2 -8 7 -15 16 -16 20 -1 16 -28 62 -36 62
-4 0 -8 15 -8 33 0 24 -3 28 -10 17 -9 -13 -10 -13 -11 0 -1 8 -1 21 0 29 2 8
-2 10 -11 5 -9 -5 -8 -2 2 11 9 11 10 16 3 11 -8 -4 -13 -2 -13 4 0 6 -4 9 -8
6 -4 -2 -8 4 -8 14 0 10 4 16 8 14 4 -3 8 -1 8 3 0 5 -9 14 -20 21 -12 7 -18
16 -16 21 3 4 -1 17 -8 27 -10 13 -11 24 -5 36 9 16 5 22 -12 20 -4 -1 -3 14
1 33 5 22 4 38 -3 42 -6 4 -7 1 -2 -8 5 -8 4 -10 0 -6 -5 4 -10 21 -11 38 -1
17 -8 36 -14 44 -8 10 -8 15 1 21 8 5 9 3 4 -6 -5 -9 -4 -11 3 -6 7 4 8 15 2
30 -5 13 -6 27 -3 30 4 3 1 6 -6 6 -7 0 -9 5 -5 12 11 17 11 58 1 58 -4 0 -3
9 3 20 8 15 8 20 -2 20 -9 0 -9 3 2 10 8 5 10 10 4 10 -14 0 -11 37 4 52 9 9
8 16 -6 32 -10 12 -11 16 -3 11 11 -6 13 -3 9 13 -3 12 -3 21 1 20 19 -2 24 3
11 12 -13 9 -13 10 0 10 13 0 13 1 0 11 -11 8 -12 12 -2 16 6 2 10 9 6 14 -3
5 0 9 6 9 8 0 7 6 -1 21 -6 12 -7 19 -1 15 5 -3 13 1 16 10 3 9 2 12 -5 8 -6
-3 -5 3 2 14 7 12 18 18 24 14 5 -3 4 2 -4 11 -14 18 -8 52 9 42 6 -4 7 1 3
12 -6 16 -5 17 13 3 18 -14 18 -14 3 5 -24 31 -11 62 23 56 4 0 3 10 -2 24 -7
18 -6 24 3 22 7 -1 12 5 12 13 0 8 7 21 15 28 13 12 13 13 0 7 -9 -4 -7 0 4 9
10 8 15 20 10 27 -4 8 -3 10 4 5 7 -4 12 -1 12 9 0 9 4 13 10 10 5 -3 7 0 4 8
-3 8 0 18 7 23 8 5 10 3 4 -6 -5 -9 -4 -11 4 -6 9 6 9 11 -1 24 -7 9 -8 13 -3
10 6 -3 19 4 30 15 11 11 13 16 5 12 -13 -8 -13 -7 0 11 8 10 22 25 30 32 8 8
10 11 4 8 -7 -3 -14 3 -17 13 -4 15 -1 18 12 13 14 -5 14 -3 3 10 -7 9 -9 19
-4 22 10 6 10 46 -1 63 -4 6 -1 14 5 16 10 4 9 6 -1 6 -11 1 -10 6 5 22 11 13
13 19 5 17 -7 -2 -15 7 -17 20 -2 13 1 22 9 22 8 0 7 4 -3 10 -8 5 -11 10 -6
10 5 0 3 7 -4 15 -11 13 -10 14 6 8 16 -6 17 -4 7 9 -7 8 -10 18 -6 22 11 11
12 37 1 30 -6 -4 -8 -1 -6 7 3 8 11 13 17 11 7 -1 10 2 6 8 -3 6 -11 8 -16 5
-5 -4 -9 1 -9 9 0 9 6 16 13 16 8 0 8 3 -2 9 -13 8 -13 12 0 27 13 16 12 17
-6 11 -20 -7 -20 -7 -1 8 11 8 14 15 8 15 -7 0 -11 3 -11 8 4 22 -3 32 -22 32
-13 0 -18 -4 -13 -12 5 -8 2 -9 -9 -5 -9 3 -19 1 -23 -5 -5 -7 -2 -8 6 -3 9 6
11 4 6 -4 -5 -7 -14 -10 -21 -7 -7 2 -16 -2 -19 -10 -3 -9 -11 -12 -17 -8 -7
4 -9 3 -6 -3 4 -6 0 -16 -8 -23 -8 -7 -15 -22 -15 -34 0 -14 -3 -17 -8 -9 -6
10 -12 10 -28 -2 -19 -15 -19 -15 1 -9 20 5 20 5 1 -10 -10 -8 -23 -13 -27
-10 -4 2 -6 -5 -4 -17 4 -17 2 -19 -11 -8 -12 10 -13 9 -9 -4 4 -8 1 -18 -6
-23 -8 -5 -10 -3 -4 7 7 12 6 12 -7 1 -10 -8 -14 -20 -11 -29 4 -11 2 -14 -5
-9 -7 4 -12 2 -12 -4 0 -6 -5 -8 -12 -4 -6 4 -8 3 -5 -3 8 -13 -27 -55 -39
-45 -4 4 -2 -1 5 -11 12 -15 12 -17 -3 -11 -19 7 -22 -12 -3 -20 6 -3 3 -4 -7
-3 -10 1 -21 -4 -24 -12 -3 -9 0 -11 8 -6 9 6 11 4 6 -4 -5 -7 -13 -10 -20 -8
-7 3 -13 -4 -13 -16 -1 -11 -7 -25 -14 -31 -9 -8 -10 -8 -5 1 5 9 2 11 -10 6
-11 -4 -13 -8 -6 -11 7 -2 12 -10 12 -18 0 -9 -4 -12 -10 -9 -5 3 -10 -1 -10
-10 0 -9 -4 -14 -9 -11 -5 4 -7 -3 -4 -14 3 -12 0 -20 -6 -20 -7 0 -9 6 -5 13
4 7 3 9 -2 4 -12 -12 -12 -30 1 -39 6 -5 3 -8 -7 -8 -9 0 -20 -5 -24 -12 -5
-7 -3 -8 7 -3 11 7 11 5 -1 -10 -8 -10 -14 -21 -13 -24 1 -3 -1 -8 -4 -11 -4
-3 -3 1 2 9 5 9 4 12 -3 7 -6 -4 -9 -13 -5 -22 3 -8 -3 -22 -13 -30 -11 -9
-13 -12 -6 -9 11 6 12 3 3 -14 -7 -11 -17 -21 -23 -21 -7 0 -3 -7 8 -16 10 -8
13 -13 7 -9 -7 3 -13 1 -13 -5 0 -6 -4 -8 -10 -5 -6 3 -7 -1 -4 -9 4 -10 1
-16 -7 -16 -11 0 -11 -3 1 -10 9 -6 11 -10 3 -10 -7 0 -10 -7 -6 -17 4 -10 2
-14 -4 -10 -6 4 -14 0 -17 -9 -9 -24 -7 -31 4 -14 6 9 10 10 10 3 0 -6 -4 -14
-10 -18 -5 -3 -6 -13 -3 -22 5 -12 2 -15 -10 -10 -11 4 -14 2 -10 -8 3 -8 10
-12 17 -9 6 3 1 -3 -12 -13 -18 -15 -20 -21 -10 -31 9 -9 9 -12 -3 -12 -11 0
-11 -2 -1 -8 7 -5 10 -16 6 -25 -3 -9 -9 -15 -13 -13 -4 3 -7 -18 -6 -46 1
-31 -4 -56 -13 -64 -8 -8 -9 -14 -3 -14 15 0 14 -53 -1 -69 -11 -12 -9 -13 7
-7 20 6 20 6 1 -9 -12 -9 -15 -15 -7 -15 11 0 11 -3 1 -15 -7 -8 -8 -15 -3
-15 5 0 9 -13 8 -30 0 -16 -4 -30 -10 -30 -5 0 -3 -5 5 -10 13 -9 13 -10 0
-10 -13 0 -13 -1 0 -10 13 -9 13 -11 0 -20 -12 -7 -12 -10 -1 -10 7 0 11 -6 8
-14 -3 -7 0 -19 6 -25 8 -8 8 -11 -1 -11 -6 0 -9 -7 -5 -17 5 -12 3 -14 -8 -9
-9 5 -9 3 2 -6 10 -8 15 -29 15 -56 -1 -29 4 -47 14 -53 13 -7 13 -8 1 -9 -11
0 -12 -3 -4 -11 6 -6 9 -18 6 -27 -5 -11 -2 -13 6 -7 10 6 11 3 1 -15 -7 -12
-8 -20 -2 -16 5 3 13 -1 16 -10 9 -23 8 -26 -6 -18 -10 5 -10 4 -1 -6 6 -7 9
-19 6 -26 -3 -8 0 -14 6 -14 6 0 11 -8 11 -18 0 -10 5 -23 12 -30 9 -9 9 -12
0 -12 -19 0 -14 -18 8 -25 17 -5 18 -10 9 -27 -6 -11 -7 -18 -2 -15 4 3 13 -6
20 -19 8 -18 8 -23 0 -18 -7 3 -4 -1 6 -9 20 -16 23 -32 5 -21 -9 5 -9 3 1 -9
7 -9 17 -14 22 -11 5 3 6 -2 3 -10 -6 -16 18 -49 30 -41 3 3 2 -1 -4 -7 -12
-14 -13 -31 -2 -24 5 3 15 -10 22 -29 8 -19 18 -35 22 -35 5 0 7 -4 4 -8 -2
-4 -1 -14 5 -22 7 -13 9 -13 9 0 0 13 1 13 10 0 6 -9 5 -17 -3 -22 -8 -5 -6
-8 6 -8 11 0 17 -8 17 -22 0 -12 3 -19 6 -15 3 3 16 -6 29 -21 19 -22 21 -31
12 -47 -8 -17 -8 -18 4 -9 11 8 19 4 36 -13 12 -13 20 -23 16 -23 -3 0 4 -9
16 -19 16 -14 18 -21 9 -24 -7 -3 -3 -6 10 -6 12 -1 22 -7 22 -15 0 -8 9 -18
20 -21 11 -3 20 -13 20 -21 0 -8 5 -12 10 -9 13 8 13 -8 -1 -22 -8 -8 -8 -13
0 -18 6 -3 10 -1 9 6 -2 6 3 14 11 17 8 3 11 0 7 -7 -4 -6 -1 -11 8 -11 14 0
20 -11 18 -32 -1 -3 5 -9 13 -12 9 -3 12 0 9 12 -2 9 0 7 7 -4 6 -12 22 -27
35 -33 13 -6 24 -15 24 -21 0 -6 5 -8 12 -4 8 5 9 2 5 -9 -4 -11 -1 -17 9 -17
9 0 12 5 8 12 -4 7 -3 8 4 4 7 -4 12 -14 12 -22 0 -8 3 -13 8 -13 25 4 34 -2
23 -15 -10 -12 -8 -13 10 -9 15 4 27 -1 41 -18 11 -13 17 -19 14 -13 -3 6 1
11 10 11 10 0 12 -7 8 -20 -3 -11 -2 -17 3 -14 15 10 68 -9 65 -23 -1 -6 3
-10 10 -8 7 3 19 -2 26 -11 8 -9 11 -11 8 -4 -10 18 23 9 38 -12 8 -11 19 -16
30 -12 10 4 19 1 22 -8 4 -8 10 -12 15 -9 5 3 9 -1 9 -8 0 -9 3 -9 10 2 7 11
10 11 10 2 0 -7 7 -12 16 -10 10 2 19 -4 21 -12 4 -13 3 -13 -6 0 -6 8 -11 10
-11 4 0 -21 14 -24 33 -7 11 10 18 13 15 8 -4 -6 5 -15 18 -22 13 -6 22 -8 19
-4 -2 5 13 3 35 -3 22 -5 40 -14 40 -19 0 -5 8 -3 17 4 9 8 14 9 10 3 -4 -7 2
-14 13 -17 11 -3 20 -1 20 5 0 5 5 6 10 3 6 -4 7 -12 3 -18 -4 -7 1 -6 11 2
15 13 19 13 27 0 7 -12 9 -12 9 1 0 12 2 12 9 2 4 -8 11 -13 15 -13 27 4 66 0
62 -7 -2 -4 4 -8 15 -8 10 0 19 3 19 6 0 3 9 6 20 7 13 1 18 -2 14 -9 -5 -7
-2 -8 7 -2 22 13 51 16 43 3 -5 -8 -1 -8 13 0 14 7 24 7 33 -2 10 -9 11 -9 6
1 -9 16 6 16 23 0 11 -10 13 -10 7 0 -5 7 -1 12 9 12 9 0 13 -5 10 -10 -3 -6
-1 -10 4 -10 6 0 11 4 11 8 0 4 9 8 20 9 13 1 18 -2 13 -10 -5 -9 -3 -9 8 0
12 10 18 10 29 0 10 -9 11 -9 6 0 -5 9 0 13 16 13 45 0 63 3 70 14 5 7 8 6 8
-3 0 -11 4 -10 16 5 8 10 13 14 10 7 -4 -6 -2 -14 4 -18 5 -3 10 -1 10 5 0 7
7 10 15 6 8 -3 15 -1 15 3 0 5 10 7 22 3 16 -4 19 -2 13 9 -8 12 -6 12 8 0 14
-11 18 -11 23 2 3 9 13 13 25 10 10 -3 16 -10 12 -16 -3 -6 -1 -7 6 -3 6 4 9
12 6 17 -4 5 -1 10 4 10 6 1 16 3 21 4 6 1 15 3 21 4 5 0 7 6 4 11 -3 6 -1 10
4 10 6 0 11 -4 11 -9 0 -5 7 -11 14 -14 11 -4 13 -1 9 10 -4 10 -2 14 4 10 6
-4 14 0 17 8 5 13 10 14 27 4 19 -10 21 -9 15 6 -6 16 -4 16 11 4 10 -7 15 -9
11 -5 -13 15 13 38 27 26 9 -8 14 -6 19 5 3 8 17 15 32 15 17 0 24 4 21 13 -4
10 3 12 24 9 18 -3 29 0 29 7 0 7 -5 9 -12 5 -7 -4 -8 -3 -4 4 4 6 20 10 37 8
25 -3 28 -1 17 12 -11 13 -10 15 9 10 16 -4 24 -1 28 13 5 14 12 18 25 14 10
-3 22 0 26 6 5 8 3 9 -7 4 -12 -8 -12 -6 0 8 7 9 17 14 22 11 5 -3 9 1 9 9 0
8 8 14 18 13 12 -1 16 5 14 18 -3 16 -1 18 11 8 11 -10 18 -6 37 18 13 17 29
30 36 30 8 0 14 7 14 15 0 8 3 14 8 13 4 -2 9 2 10 7 7 20 25 35 43 35 11 0
19 5 19 11 0 5 -6 7 -12 3 -10 -5 -10 -3 0 7 11 12 14 12 23 -1 9 -12 10 -10
6 7 -5 22 8 40 28 42 6 1 11 6 11 11 3 21 4 22 17 11 11 -8 13 -6 13 12 -1 13
4 21 12 19 8 -1 11 2 8 7 -4 5 3 16 14 24 11 7 17 17 13 20 -3 4 2 7 13 7 15
0 16 2 5 9 -11 7 -9 10 8 16 12 3 21 12 20 18 -1 7 1 20 6 30 5 13 11 15 21 6
10 -8 12 -5 8 15 -3 18 2 29 16 38 11 7 20 16 20 21 0 4 -5 5 -12 1 -7 -4 -8
-3 -4 5 6 9 11 9 24 -1 12 -10 14 -10 8 0 -9 15 2 54 13 47 5 -2 7 9 6 25 -2
24 0 28 10 20 9 -8 15 -8 20 0 3 5 0 10 -7 10 -9 0 -10 3 -2 8 6 4 10 15 8 24
-1 10 3 21 8 25 7 4 8 1 3 -7 -6 -9 -4 -11 4 -5 7 4 11 15 8 24 -2 9 2 23 10
30 8 7 12 19 9 27 -3 8 -1 14 5 14 6 0 7 5 3 12 -5 8 -2 9 9 5 9 -3 19 -2 22
4 4 5 3 9 -2 8 -20 -3 -27 2 -13 11 10 6 11 10 3 10 -7 0 -13 5 -13 11 0 5 5
7 12 3 8 -5 9 0 6 14 -4 15 -2 22 7 22 8 0 17 5 21 12 4 6 3 8 -4 4 -7 -4 -9
2 -7 16 6 41 17 68 25 63 5 -3 12 0 16 6 4 7 3 9 -3 6 -6 -4 -13 0 -16 7 -3 8
-1 17 6 20 9 3 8 8 -3 15 -11 8 -12 11 -2 11 7 0 10 5 7 10 -3 6 -2 10 3 10 5
0 7 11 4 25 -2 14 0 25 5 25 5 0 7 14 5 31 -3 20 -1 29 5 26 6 -4 8 3 5 18 -2
15 -9 22 -16 18 -6 -4 -5 0 2 9 8 10 12 33 9 57 -2 23 0 41 4 41 5 0 9 5 9 11
0 5 -4 7 -10 4 -6 -4 -7 2 -1 18 7 17 6 29 -2 37 -9 10 -8 12 5 7 15 -5 16 -4
5 14 -10 16 -9 22 3 30 13 9 13 10 -2 6 -14 -5 -16 2 -14 53 2 45 -1 60 -12
65 -12 5 -12 9 4 27 11 12 14 18 8 15 -14 -8 -26 17 -18 38 4 8 1 15 -6 15 -9
0 -10 3 -1 13 8 11 6 18 -9 32 -15 14 -17 21 -9 32 9 10 8 13 0 13 -8 0 -9 6
-2 18 6 12 5 23 -5 36 -7 10 -11 23 -7 29 3 6 1 7 -5 3 -8 -5 -12 1 -12 18 0
13 -5 26 -11 28 -5 2 -11 18 -11 37 -1 18 -7 35 -15 38 -10 4 -11 9 -3 18 8
10 8 15 -1 21 -8 4 -9 3 -5 -4 4 -7 2 -12 -3 -12 -6 0 -11 9 -11 19 0 11 -6
22 -12 24 -10 4 -10 6 0 6 10 1 10 4 0 15 -7 8 -16 12 -19 10 -4 -2 -9 5 -12
15 -3 12 0 18 7 17 6 -2 8 -1 4 1 -5 3 -8 11 -8 18 0 8 -10 21 -22 29 -12 9
-19 16 -14 16 4 0 -2 9 -15 21 -13 11 -18 18 -12 14 9 -4 11 -1 7 10 -4 9 -9
13 -12 11 -3 -3 -11 2 -18 12 -9 12 -9 21 -1 30 8 10 7 12 -4 10 -8 -2 -13 4
-12 15 0 10 -1 16 -4 13 -9 -9 -44 14 -38 25 4 5 1 9 -5 9 -6 0 -10 7 -8 16 2
10 -3 18 -10 20 -7 1 -8 0 -2 -3 5 -2 8 -9 5 -14 -4 -5 -12 -3 -20 4 -9 8 -10
16 -3 25 7 8 7 12 -1 12 -7 0 -10 4 -7 9 3 5 -2 8 -12 7 -9 0 -21 9 -27 22 -5
12 -13 22 -18 22 -4 0 -5 6 -1 13 5 7 0 6 -11 -3 -17 -14 -18 -13 -13 6 5 18
2 22 -18 19 -13 -1 -21 2 -18 7 3 5 -5 18 -18 29 -13 11 -18 18 -11 15 6 -4
15 -2 18 4 4 6 3 10 -2 9 -21 -4 -34 2 -27 13 4 7 3 8 -5 4 -6 -4 -9 -12 -6
-17 3 -5 -1 -6 -10 -3 -11 5 -13 10 -5 19 8 10 8 15 -1 21 -8 4 -9 3 -5 -4 10
-17 -3 -15 -20 2 -11 11 -11 16 -1 19 8 4 7 6 -3 6 -8 0 -24 -7 -35 -15z
m-1965 -48 c0 -2 -12 -11 -27 -20 l-28 -17 24 20 c23 21 31 25 31 17z m2398
-431 c-3 -3 -9 2 -12 12 -6 14 -5 15 5 6 7 -7 10 -15 7 -18z m-2358 -1440 c7
-8 9 -15 6 -15 -4 0 -14 7 -22 15 -9 8 -11 15 -6 15 5 0 15 -7 22 -15z"/>
<path d="M6545 2420 c4 -6 11 -8 16 -5 14 9 11 15 -7 15 -8 0 -12 -5 -9 -10z"/>
<path d="M8556 1958 c3 -5 10 -6 15 -3 13 9 11 12 -6 12 -8 0 -12 -4 -9 -9z"/>
<path d="M6846 1933 c-6 -14 -5 -15 5 -6 7 7 10 15 7 18 -3 3 -9 -2 -12 -12z"/>
<path d="M6410 1826 c0 -2 8 -10 18 -17 15 -13 16 -12 3 4 -13 16 -21 21 -21
13z"/>
<path d="M8766 1602 c-3 -5 1 -9 9 -9 8 0 15 4 15 9 0 4 -4 8 -9 8 -6 0 -12
-4 -15 -8z"/>
</g>
</svg>
